<?xml version="1.0" standalone="no"?>
<!DOCTYPE svg PUBLIC "-//W3C//DTD SVG 20010904//EN"
 "http://www.w3.org/TR/2001/REC-SVG-20010904/DTD/svg10.dtd">
<svg version="1.0" xmlns="http://www.w3.org/2000/svg"
 width="1248.000000pt" height="714.000000pt" viewBox="0 0 1248.000000 714.000000"
 preserveAspectRatio="xMidYMid meet">

<g transform="translate(0.000000,714.000000) scale(0.100000,-0.100000)"
fill="#000000" stroke="none">
<path d="M953 6960 c-52 -21 -32 -92 30 -104 41 -8 60 -27 51 -50 -8 -22 -44
-29 -78 -17 -34 13 -36 13 -36 1 0 -17 52 -32 88 -25 41 8 61 43 44 79 -7 16
-24 27 -56 35 -39 10 -46 15 -46 36 0 29 36 43 68 26 14 -7 23 -8 27 -1 3 6
-6 15 -20 20 -31 12 -43 12 -72 0z"/>
<path d="M1080 6960 c0 -5 14 -10 30 -10 l30 0 0 -95 c0 -57 4 -95 10 -95 6 0
10 38 10 95 l0 95 30 0 c17 0 30 5 30 10 0 6 -30 10 -70 10 -40 0 -70 -4 -70
-10z"/>
<path d="M1290 6968 c0 -3 -16 -49 -35 -104 -40 -114 -38 -104 -25 -104 6 0
15 11 20 25 8 21 16 25 50 25 33 0 42 -4 52 -25 11 -24 28 -34 28 -17 0 22
-68 196 -78 200 -7 2 -12 2 -12 0z m28 -81 c18 -49 15 -57 -19 -57 -24 0 -29
4 -25 18 3 9 8 29 12 45 8 36 17 34 32 -6z"/>
<path d="M1450 6963 c-29 -10 -40 -37 -40 -100 0 -50 4 -67 20 -83 25 -25 61
-26 91 -1 30 24 19 39 -13 17 -48 -34 -78 -8 -78 69 0 77 30 103 78 69 32 -22
43 -7 13 17 -23 19 -43 22 -71 12z"/>
<path d="M1580 6866 c0 -88 3 -106 15 -106 10 0 15 10 15 31 0 33 15 69 30 69
5 0 21 -22 37 -50 15 -27 34 -50 41 -50 8 0 0 24 -23 65 l-37 65 33 37 c20 23
27 39 20 41 -7 2 -13 2 -15 1 -1 -2 -20 -26 -42 -53 l-39 -49 -5 48 c-3 27
-11 50 -17 53 -10 3 -13 -22 -13 -102z"/>
<path d="M5750 6865 c0 -63 4 -105 10 -105 6 0 10 20 10 45 l0 45 45 0 45 0 0
-45 c0 -33 4 -45 15 -45 12 0 15 18 15 105 0 87 -3 105 -15 105 -11 0 -15 -12
-15 -50 l0 -50 -45 0 -45 0 0 50 c0 28 -4 50 -10 50 -6 0 -10 -42 -10 -105z"/>
<path d="M5940 6865 l0 -105 65 0 c78 0 88 18 13 22 -52 3 -53 4 -56 36 -3 32
-3 32 42 32 58 0 60 18 4 22 -42 3 -43 4 -43 38 l0 35 53 3 c75 4 65 22 -13
22 l-65 0 0 -105z"/>
<path d="M6129 6865 c-25 -73 -33 -105 -24 -105 7 0 16 11 19 25 6 22 12 25
51 25 39 0 45 -3 51 -25 3 -14 12 -25 19 -25 10 0 3 30 -23 105 -20 58 -41
105 -47 105 -5 0 -26 -47 -46 -105z m64 10 l16 -45 -34 0 c-34 0 -34 0 -24 33
6 17 12 38 15 45 6 20 11 14 27 -33z"/>
<path d="M6290 6866 c0 -64 4 -106 10 -106 6 0 10 18 10 40 l0 40 40 0 c54 0
85 30 76 73 -9 44 -18 50 -81 55 l-55 4 0 -106z m98 72 c16 -16 15 -53 -2 -67
-8 -7 -27 -11 -43 -9 -22 2 -29 9 -31 31 -2 16 -1 35 2 43 7 17 57 19 74 2z"/>
<path d="M4030 5765 l0 -595 1158 2 1157 3 -1152 2 -1153 3 0 585 0 585 1515
0 1515 0 0 -585 0 -585 -312 -3 -313 -2 318 -3 317 -2 0 595 0 595 -1525 0
-1525 0 0 -595z"/>
<path d="M4252 6235 c-1 -33 1 -45 7 -36 8 13 12 13 28 0 16 -13 17 -13 4 3
-7 10 -10 25 -7 34 5 14 4 15 -8 5 -12 -10 -15 -7 -19 16 -2 17 -5 8 -5 -22z"/>
<path d="M4746 6272 c-2 -4 -1 -14 3 -21 6 -10 10 -9 14 3 6 16 -8 32 -17 18z"/>
<path d="M4962 6235 c-1 -33 1 -45 7 -36 8 13 12 13 27 0 16 -13 16 -12 5 9
-6 12 -9 28 -5 35 6 8 3 8 -8 -1 -14 -12 -17 -10 -21 15 -2 17 -5 8 -5 -22z"/>
<path d="M6150 6265 c0 -8 -6 -15 -14 -15 -8 0 -16 -7 -20 -15 -8 -23 4 -45
25 -45 16 0 19 8 19 45 0 25 -2 45 -5 45 -3 0 -5 -7 -5 -15z m0 -45 c0 -21
-15 -27 -25 -10 -7 12 2 30 16 30 5 0 9 -9 9 -20z"/>
<path d="M6512 6235 c-1 -36 1 -46 8 -35 8 12 12 13 19 2 5 -9 8 -4 7 16 -1
22 -4 28 -13 20 -8 -6 -13 -1 -16 19 -2 17 -5 8 -5 -22z"/>
<path d="M4786 6255 c4 -8 10 -12 15 -9 14 8 10 24 -6 24 -9 0 -12 -6 -9 -15z"/>
<path d="M5788 6259 c-6 -17 3 -69 11 -69 7 0 6 69 -2 76 -3 3 -7 0 -9 -7z"/>
<path d="M6048 6259 c-6 -17 3 -69 11 -69 7 0 6 69 -2 76 -3 3 -7 0 -9 -7z"/>
<path d="M4678 6255 c-6 -7 3 -65 11 -65 7 0 7 58 -1 65 -2 3 -7 3 -10 0z"/>
<path d="M4120 6208 c0 -24 4 -38 8 -32 4 6 15 13 25 17 26 10 18 51 -10 55
-21 3 -23 -1 -23 -40z m40 12 c0 -11 -7 -20 -15 -20 -8 0 -15 9 -15 20 0 11 7
20 15 20 8 0 15 -9 15 -20z"/>
<path d="M4187 6235 c-9 -22 3 -46 22 -43 10 2 16 13 16 28 0 28 -29 40 -38
15z m33 -15 c0 -11 -4 -20 -9 -20 -14 0 -23 18 -16 30 10 17 25 11 25 -10z"/>
<path d="M4314 6235 c-9 -22 3 -45 23 -44 16 0 16 1 -1 8 -19 7 -19 8 2 13 15
4 20 11 16 22 -8 20 -33 21 -40 1z m31 -5 c3 -5 -1 -10 -9 -10 -9 0 -16 5 -16
10 0 6 4 10 9 10 6 0 13 -4 16 -10z"/>
<path d="M4381 6218 c2 -30 2 -31 6 -5 2 15 8 27 13 27 5 0 11 -12 13 -27 l4
-28 2 28 c1 34 28 36 34 2 4 -23 4 -23 3 2 -1 25 -5 28 -38 31 -37 3 -38 2
-37 -30z"/>
<path d="M4484 6235 c-9 -23 3 -45 23 -44 17 1 17 2 1 6 -10 2 -18 13 -18 24
0 24 15 25 30 2 11 -17 11 -17 6 0 -3 10 -6 21 -6 23 0 11 -31 2 -36 -11z"/>
<path d="M4551 6218 c2 -31 2 -31 6 -5 2 15 8 27 13 27 5 0 11 -12 13 -27 4
-26 4 -26 6 5 1 26 -3 32 -19 32 -16 0 -20 -6 -19 -32z"/>
<path d="M4830 6208 c0 -24 4 -38 8 -32 4 6 15 13 25 17 26 10 18 51 -10 55
-21 3 -23 -1 -23 -40z m40 12 c0 -11 -7 -20 -15 -20 -8 0 -15 9 -15 20 0 11 7
20 15 20 8 0 15 -9 15 -20z"/>
<path d="M4897 6235 c-9 -22 3 -46 22 -43 10 2 16 13 16 28 0 28 -29 40 -38
15z m33 -15 c0 -11 -4 -20 -9 -20 -14 0 -23 18 -16 30 10 17 25 11 25 -10z"/>
<path d="M5024 6236 c-9 -23 3 -46 23 -45 16 0 16 1 -2 9 -19 8 -19 9 3 9 17
1 22 6 20 18 -4 23 -36 29 -44 9z m36 -6 c0 -5 -7 -10 -15 -10 -8 0 -15 5 -15
10 0 6 7 10 15 10 8 0 15 -4 15 -10z"/>
<path d="M5091 6218 c2 -30 2 -31 6 -5 2 15 8 27 13 27 5 0 11 -12 13 -27 l4
-28 2 28 c1 34 28 36 34 2 4 -23 4 -23 3 2 -1 25 -5 28 -38 31 -37 3 -38 2
-37 -30z"/>
<path d="M5194 6235 c-8 -21 2 -45 20 -45 17 0 28 24 20 45 -4 8 -13 15 -20
15 -8 0 -17 -7 -20 -15z m31 -15 c0 -7 -6 -15 -12 -17 -8 -3 -13 4 -13 17 0
13 5 20 13 18 6 -3 12 -11 12 -18z"/>
<path d="M5261 6218 c2 -31 2 -31 6 -5 5 33 20 36 26 5 4 -20 4 -19 6 5 1 21
-4 27 -19 27 -16 0 -20 -6 -19 -32z"/>
<path d="M5343 6244 c24 -8 21 -27 -4 -21 -15 4 -19 1 -17 -11 2 -9 12 -18 23
-19 20 -3 20 -3 0 6 -19 9 -19 10 3 10 29 1 26 35 -3 38 -16 1 -16 1 -2 -3z"/>
<path d="M5394 6238 c-4 -6 1 -17 10 -24 16 -12 16 -13 -1 -17 -14 -4 -14 -5
5 -6 13 -1 22 5 22 14 0 8 -7 15 -15 15 -21 0 -19 18 3 23 15 4 15 5 0 6 -9 0
-20 -4 -24 -11z"/>
<path d="M5692 6220 c0 -19 2 -27 5 -17 2 9 2 25 0 35 -3 9 -5 1 -5 -18z"/>
<path d="M5721 6218 c2 -30 2 -31 6 -5 5 34 30 36 36 2 4 -23 4 -23 3 2 -1 21
-7 29 -23 31 -20 3 -23 -1 -22 -30z"/>
<path d="M5856 6235 c-8 -21 3 -45 22 -45 13 0 12 3 -4 15 -19 15 -19 15 0 30
16 12 17 15 4 15 -9 0 -18 -7 -22 -15z"/>
<path d="M5933 6244 c23 -7 22 -20 -4 -27 -25 -7 -16 -27 12 -27 29 0 23 54
-6 57 -16 1 -16 1 -2 -3z m14 -40 c-3 -3 -12 -4 -19 -1 -8 3 -5 6 6 6 11 1 17
-2 13 -5z"/>
<path d="M5981 6218 c2 -30 2 -31 6 -5 5 34 30 36 36 2 4 -23 4 -23 3 2 -1 21
-7 29 -23 31 -20 3 -23 -1 -22 -30z"/>
<path d="M6092 6220 c0 -19 2 -27 5 -17 2 9 2 25 0 35 -3 9 -5 1 -5 -18z"/>
<path d="M6203 6244 c23 -7 22 -20 -4 -27 -25 -7 -16 -27 12 -27 29 0 23 54
-6 57 -16 1 -16 1 -2 -3z m14 -40 c-3 -3 -12 -4 -19 -1 -8 3 -5 6 6 6 11 1 17
-2 13 -5z"/>
<path d="M6254 6235 c-4 -8 -4 -22 0 -30 6 -16 36 -21 36 -5 0 5 -7 7 -15 4
-11 -4 -15 0 -15 16 0 16 4 20 15 16 8 -3 15 -1 15 4 0 16 -30 11 -36 -5z"/>
<path d="M6381 6208 c0 -24 3 -37 6 -30 2 6 11 12 19 12 8 0 14 4 14 10 0 5
-7 7 -15 4 -11 -4 -15 0 -15 16 0 16 4 20 15 16 8 -3 15 -1 15 4 0 6 -9 10
-20 10 -17 0 -20 -6 -19 -42z"/>
<path d="M6463 6244 c9 -3 17 -14 17 -24 0 -10 -8 -21 -17 -24 -14 -4 -14 -4
2 -3 14 2 20 10 20 27 0 17 -6 25 -20 27 -16 1 -16 1 -2 -3z"/>
<path d="M6574 6235 c-9 -22 3 -45 23 -44 16 0 15 1 -2 8 l-20 8 20 5 c16 5
17 6 3 7 -10 0 -18 6 -18 12 0 6 7 9 15 5 8 -3 15 -1 15 4 0 16 -30 11 -36 -5z"/>
<path d="M6640 6241 c0 -6 6 -8 14 -5 10 4 16 -3 19 -23 l4 -28 2 28 c1 34 28
36 34 2 4 -23 4 -23 3 2 -1 25 -5 28 -38 31 -22 2 -38 -1 -38 -7z"/>
<path d="M6747 6243 c-11 -10 -8 -41 4 -49 6 -3 16 -1 22 5 9 9 8 11 -5 6 -14
-6 -18 -2 -18 15 0 16 4 20 16 16 8 -3 12 -2 9 4 -7 12 -19 13 -28 3z"/>
<path d="M6810 6240 c0 -5 6 -7 14 -4 10 4 16 -3 19 -23 4 -27 4 -27 6 5 1 26
-3 32 -19 32 -11 0 -20 -4 -20 -10z"/>
<path d="M6874 6235 c-9 -22 3 -45 23 -44 16 0 16 1 -1 8 -19 7 -19 8 2 13 15
4 20 11 16 22 -8 20 -33 21 -40 1z m31 -5 c3 -5 -1 -10 -9 -10 -9 0 -16 5 -16
10 0 6 4 10 9 10 6 0 13 -4 16 -10z"/>
<path d="M6940 6235 c0 -9 8 -19 17 -22 15 -6 15 -7 -3 -15 -19 -8 -19 -8 0
-5 24 3 34 27 12 27 -19 0 -21 16 -3 23 7 3 5 6 -5 6 -10 1 -18 -6 -18 -14z"/>
<path d="M363 5941 c-7 -10 -9 -22 -5 -25 3 -4 5 -23 3 -42 -1 -19 2 -34 8
-34 6 0 11 18 11 40 0 25 5 40 13 40 8 0 7 4 -3 10 -13 9 -13 11 0 20 13 9 13
10 0 10 -8 0 -21 -9 -27 -19z"/>
<path d="M1402 5900 c-1 -53 1 -60 9 -40 l10 25 19 -25 c11 -14 20 -20 19 -15
0 6 -6 19 -14 29 -13 17 -13 22 2 38 9 10 11 18 5 18 -6 0 -18 -10 -26 -21
-14 -21 -15 -20 -19 17 -2 25 -4 16 -5 -26z"/>
<path d="M2095 5949 c-4 -6 -3 -15 3 -21 6 -6 11 -4 15 6 7 18 -9 31 -18 15z"/>
<path d="M2292 5943 c-4 -10 -5 -38 -1 -63 l6 -45 1 42 c1 23 8 44 15 46 9 4
8 6 -2 6 -11 1 -11 4 -1 16 8 10 9 15 2 15 -6 0 -15 -8 -20 -17z"/>
<path d="M2702 5900 c-1 -53 1 -60 9 -40 l10 25 19 -25 c22 -28 25 -23 9 14
-9 20 -9 29 1 41 7 8 8 15 4 15 -5 0 -16 -10 -24 -22 -14 -23 -15 -22 -21 17
-5 34 -6 30 -7 -25z"/>
<path d="M1988 5939 c-7 -20 6 -92 17 -96 8 -2 11 41 6 100 -1 11 -19 8 -23
-4z"/>
<path d="M227 5923 c-11 -10 -8 -83 3 -83 6 0 10 20 10 45 0 46 -2 50 -13 38z"/>
<path d="M271 5881 l2 -46 6 40 c4 26 11 40 21 40 10 0 17 -14 21 -40 l7 -40
-2 45 c-1 42 -3 45 -28 46 -27 1 -28 -1 -27 -45z"/>
<path d="M420 5916 c-15 -19 -9 -56 12 -69 34 -22 66 41 36 71 -16 16 -33 15
-48 -2z m44 -12 c9 -23 -2 -54 -19 -54 -19 0 -29 38 -15 55 16 19 26 19 34 -1z"/>
<path d="M512 5880 c1 -40 2 -41 5 -10 2 19 11 40 20 47 13 10 13 12 -6 10
-18 -1 -21 -7 -19 -47z"/>
<path d="M581 5882 l2 -47 6 40 c4 26 11 40 21 40 10 0 17 -14 21 -40 5 -34 6
-36 8 -10 3 64 41 73 41 9 0 -19 5 -34 10 -34 13 0 13 46 1 69 -7 13 -23 18
-60 19 l-51 1 1 -47z"/>
<path d="M730 5921 c0 -5 9 -7 20 -4 28 7 26 -20 -2 -32 -35 -15 -29 -39 10
-43 33 -3 34 -2 31 30 -2 18 -7 39 -12 46 -11 14 -47 17 -47 3z m40 -56 c0 -8
-6 -15 -14 -15 -17 0 -28 14 -19 24 12 12 33 6 33 -9z"/>
<path d="M819 5909 c-19 -37 24 -95 45 -60 3 5 -2 8 -12 7 -13 -1 -17 7 -17
29 0 22 4 30 17 29 10 -1 15 2 12 7 -9 16 -33 10 -45 -12z"/>
<path d="M903 5885 c0 -27 2 -38 4 -22 2 15 2 37 0 50 -2 12 -4 0 -4 -28z"/>
<path d="M952 5918 c-25 -25 -8 -78 25 -78 22 0 36 40 24 66 -12 26 -30 31
-49 12z m33 -33 c0 -32 -19 -45 -29 -19 -9 22 3 56 17 51 7 -2 12 -16 12 -32z"/>
<path d="M1030 5885 c0 -25 5 -45 10 -45 6 0 10 15 10 34 0 64 38 55 41 -9 1
-25 2 -26 6 -6 9 45 -5 71 -37 71 -29 0 -30 -2 -30 -45z"/>
<path d="M1211 5868 c1 -35 3 -55 6 -45 2 9 12 17 22 17 23 0 41 20 41 45 0
27 -18 45 -47 45 -22 0 -23 -4 -22 -62z m53 36 c8 -22 -3 -56 -17 -51 -22 7
-31 35 -18 51 17 20 27 20 35 0z"/>
<path d="M1310 5916 c-15 -19 -9 -56 12 -69 34 -22 66 41 36 71 -16 16 -33 15
-48 -2z m44 -12 c8 -22 -3 -56 -17 -51 -22 7 -31 35 -18 51 17 20 27 20 35 0z"/>
<path d="M1490 5916 c-25 -31 13 -97 40 -70 8 8 4 10 -11 10 -12 -1 -24 5 -26
12 -3 8 6 12 26 12 32 0 41 16 19 38 -16 16 -33 15 -48 -2z m40 -11 c0 -8 -9
-15 -20 -15 -20 0 -26 11 -13 23 12 13 33 7 33 -8z"/>
<path d="M1570 5885 c0 -54 18 -60 22 -7 4 53 32 51 37 -3 l5 -40 5 40 c4 26
11 40 21 40 10 0 17 -14 21 -40 l7 -40 -2 45 -1 45 -57 3 -58 2 0 -45z"/>
<path d="M1724 5917 c-3 -9 -4 -28 -2 -44 2 -22 8 -28 28 -28 23 0 25 4 25 40
0 34 -3 40 -23 43 -13 2 -24 -3 -28 -11z m41 -33 c0 -19 -5 -29 -15 -29 -16 0
-25 28 -16 51 10 25 31 10 31 -22z"/>
<path d="M1811 5883 l1 -48 10 43 c11 52 32 51 36 -1 4 -42 22 -51 22 -11 0
39 -18 64 -45 64 -23 0 -25 -3 -24 -47z"/>
<path d="M2153 5885 c0 -27 2 -38 4 -22 2 15 2 37 0 50 -2 12 -4 0 -4 -28z"/>
<path d="M2191 5883 l1 -48 8 38 c4 20 10 40 13 43 13 13 27 -9 27 -42 0 -19
5 -34 10 -34 14 0 12 64 -2 78 -7 7 -22 12 -35 12 -21 0 -23 -4 -22 -47z"/>
<path d="M2344 5917 c-3 -9 -4 -28 -2 -44 2 -22 8 -28 28 -28 23 0 25 4 25 40
0 34 -3 40 -23 43 -13 2 -24 -3 -28 -11z m41 -33 c0 -19 -5 -29 -15 -29 -16 0
-25 28 -16 51 10 25 31 10 31 -22z"/>
<path d="M2521 5866 c1 -34 4 -52 7 -41 4 11 16 20 27 20 17 0 20 7 20 40 0
37 -2 40 -27 41 -28 1 -28 0 -27 -60z m44 18 c0 -19 -5 -29 -15 -29 -16 0 -25
28 -16 51 10 25 31 10 31 -22z"/>
<path d="M2611 5908 c-12 -33 2 -63 30 -63 19 0 25 6 27 28 6 51 -40 79 -57
35z m44 -24 c0 -19 -5 -29 -15 -29 -16 0 -25 28 -16 51 10 25 31 10 31 -22z"/>
<path d="M2792 5918 c-33 -33 0 -90 41 -70 l22 11 -24 -2 c-13 -1 -26 4 -28
11 -3 7 5 12 21 12 15 0 26 6 26 13 0 16 -20 37 -35 37 -6 0 -16 -5 -23 -12z
m42 -13 c4 -11 -1 -15 -19 -15 -18 0 -23 4 -19 15 4 8 12 15 19 15 7 0 15 -7
19 -15z"/>
<path d="M2881 5882 l2 -47 6 40 c4 26 11 40 21 40 10 0 17 -14 21 -40 l5 -40
5 40 c3 27 9 40 19 40 10 0 17 -14 21 -40 l7 -40 -2 45 -1 45 -52 2 -53 3 1
-48z"/>
<path d="M3032 5918 c-25 -25 -8 -78 25 -78 22 0 36 40 24 66 -12 26 -30 31
-49 12z m33 -34 c0 -19 -5 -29 -15 -29 -16 0 -25 28 -16 51 10 25 31 10 31
-22z"/>
<path d="M3110 5885 c0 -25 5 -45 10 -45 6 0 10 15 10 34 0 64 38 55 41 -9 1
-25 2 -26 6 -6 9 45 -5 71 -37 71 -29 0 -30 -2 -30 -45z"/>
<path d="M1138 5823 c12 -2 32 -2 45 0 12 2 2 4 -23 4 -25 0 -35 -2 -22 -4z"/>
<path d="M1908 5823 c12 -2 32 -2 45 0 12 2 2 4 -23 4 -25 0 -35 -2 -22 -4z"/>
<path d="M2438 5823 c12 -2 32 -2 45 0 12 2 2 4 -23 4 -25 0 -35 -2 -22 -4z"/>
<path d="M8083 5060 c0 -36 2 -55 4 -42 2 12 8 22 12 22 5 0 16 -10 25 -22 16
-22 16 -21 1 9 -9 20 -11 34 -5 38 6 3 10 12 10 18 -1 7 -9 2 -20 -11 l-19
-23 -4 38 c-2 21 -4 9 -4 -27z"/>
<path d="M8775 5109 c-4 -6 -3 -15 3 -21 6 -6 11 -4 15 6 7 18 -9 31 -18 15z"/>
<path d="M9010 5060 c0 -33 4 -60 10 -60 6 0 10 9 10 20 0 26 7 25 31 -2 l20
-23 -15 32 c-10 20 -12 34 -6 38 6 3 10 12 10 18 -1 7 -10 1 -20 -12 l-20 -23
0 36 c0 20 -4 36 -10 36 -6 0 -10 -27 -10 -60z"/>
<path d="M8668 5099 c-7 -20 6 -92 17 -96 8 -2 11 41 6 100 -1 11 -19 8 -23
-4z"/>
<path d="M7890 5029 c0 -33 4 -59 10 -59 6 0 10 8 10 18 0 13 7 18 23 18 19
-1 22 4 22 39 0 38 -2 40 -32 42 l-33 1 0 -59z m55 15 c0 -19 -5 -29 -15 -29
-16 0 -25 28 -16 51 10 25 31 10 31 -22z"/>
<path d="M7990 5076 c-15 -19 -9 -56 12 -69 34 -22 66 41 36 71 -16 16 -33 15
-48 -2z m44 -43 c-6 -9 -15 -18 -21 -20 -17 -6 -26 36 -12 53 11 13 14 13 28
-1 12 -11 13 -20 5 -32z"/>
<path d="M8170 5076 c-25 -31 13 -97 40 -70 8 8 4 10 -11 10 -12 -1 -24 5 -26
12 -3 8 6 12 26 12 34 0 36 2 21 31 -13 23 -33 25 -50 5z m40 -11 c0 -8 -9
-15 -20 -15 -20 0 -26 11 -13 23 12 13 33 7 33 -8z"/>
<path d="M8250 5044 c0 -54 18 -59 22 -6 4 53 32 51 37 -3 l5 -40 5 40 c4 26
11 40 21 40 10 0 17 -14 21 -40 l7 -40 -2 45 -1 45 -57 1 -58 1 0 -43z"/>
<path d="M8404 5077 c-3 -9 -4 -28 -2 -44 2 -22 8 -28 28 -28 23 0 25 4 25 40
0 34 -3 40 -23 43 -13 2 -24 -3 -28 -11z m41 -33 c0 -19 -5 -29 -15 -29 -16 0
-25 28 -16 51 10 25 31 10 31 -22z"/>
<path d="M8491 5043 l1 -48 8 38 c4 20 10 40 13 43 13 13 27 -9 27 -42 0 -19
5 -34 10 -34 14 0 12 64 -2 78 -7 7 -22 12 -35 12 -21 0 -23 -4 -22 -47z"/>
<path d="M8831 5028 c1 -35 3 -55 6 -45 2 9 13 17 24 17 11 0 24 11 30 24 15
32 -4 66 -36 66 -24 0 -25 -2 -24 -62z m44 17 c0 -16 -5 -30 -12 -32 -14 -5
-28 40 -18 57 12 19 30 4 30 -25z"/>
<path d="M8924 5077 c-3 -9 -4 -28 -2 -44 2 -22 8 -28 28 -28 23 0 25 4 25 40
0 34 -3 40 -23 43 -13 2 -24 -3 -28 -11z m41 -33 c0 -19 -5 -29 -15 -29 -16 0
-25 28 -16 51 10 25 31 10 31 -22z"/>
<path d="M9100 5065 c-7 -18 -7 -33 0 -46 11 -20 45 -26 55 -9 4 6 -3 9 -16 7
-12 -1 -24 4 -26 11 -3 7 5 12 22 12 22 0 26 4 23 23 -5 34 -45 36 -58 2z m48
-3 c2 -7 -6 -12 -17 -12 -21 0 -27 11 -14 24 9 9 26 2 31 -12z"/>
<path d="M9191 5042 l2 -47 6 40 c4 26 11 40 21 40 10 0 17 -14 21 -40 6 -36
6 -37 8 -9 1 31 22 60 34 47 4 -3 7 -21 7 -40 0 -18 5 -33 10 -33 14 0 12 66
-2 77 -7 5 -34 10 -60 11 l-48 2 1 -48z"/>
<path d="M9340 5076 c-15 -19 -9 -56 12 -69 34 -22 66 41 36 71 -16 16 -33 15
-48 -2z m44 -18 c7 -12 6 -21 -4 -33 -12 -14 -15 -14 -28 -2 -9 9 -11 23 -7
36 7 24 23 24 39 -1z"/>
<path d="M9431 5041 l2 -46 6 40 c4 26 11 40 21 40 10 0 17 -14 21 -40 l7 -40
-2 45 c-1 42 -3 45 -28 46 -27 1 -28 -1 -27 -45z"/>
<path d="M9530 5076 c-25 -31 13 -97 40 -70 8 8 4 10 -11 10 -12 -1 -24 5 -26
12 -3 8 6 12 26 12 34 0 36 2 21 31 -13 23 -33 25 -50 5z m40 -11 c0 -8 -9
-15 -20 -15 -20 0 -26 11 -13 23 12 13 33 7 33 -8z"/>
<path d="M9617 5083 c-15 -14 -6 -34 19 -43 29 -12 22 -34 -9 -26 -14 3 -17 2
-10 -5 17 -17 48 -6 48 16 0 13 -8 21 -22 23 -13 2 -23 10 -23 17 0 7 10 16
23 18 20 4 20 4 1 6 -11 0 -24 -2 -27 -6z"/>
<path d="M8598 4983 c12 -2 32 -2 45 0 12 2 2 4 -23 4 -25 0 -35 -2 -22 -4z"/>
<path d="M3750 3225 l0 -595 473 2 472 3 -467 2 -468 3 0 585 0 585 1800 0
1800 0 0 -585 0 -585 -1327 -3 -1328 -2 1333 -3 1332 -2 0 595 0 595 -1810 0
-1810 0 0 -595z"/>
<path d="M5312 3690 c1 -28 3 -34 5 -17 2 15 8 27 13 27 5 0 11 -12 13 -27 4
-26 4 -26 6 5 1 22 -4 32 -13 32 -8 0 -17 6 -19 13 -3 6 -5 -8 -5 -33z"/>
<path d="M5700 3693 c0 -38 2 -43 23 -42 16 1 18 2 5 6 -10 2 -18 13 -18 24 0
11 7 19 18 20 13 0 14 2 2 6 -8 3 -18 11 -22 17 -4 6 -8 -8 -8 -31z"/>
<path d="M5895 3720 c-3 -6 1 -7 9 -4 21 8 20 -10 0 -41 -16 -24 -15 -25 7
-25 18 0 21 2 10 9 -12 8 -12 12 -2 25 14 17 9 46 -8 46 -5 0 -13 -4 -16 -10z"/>
<path d="M5950 3721 c0 -6 7 -8 15 -5 11 5 15 -2 15 -26 0 -24 -4 -31 -15 -26
-8 3 -15 1 -15 -5 0 -6 8 -9 18 -7 12 2 17 13 17 38 0 25 -5 36 -17 38 -10 2
-18 -1 -18 -7z"/>
<path d="M6005 3685 c0 -25 3 -45 8 -45 4 0 7 20 7 45 0 25 -3 45 -7 45 -5 0
-8 -20 -8 -45z"/>
<path d="M5264 3695 c-8 -20 2 -45 18 -44 10 0 10 2 1 6 -7 2 -13 13 -13 23 0
10 6 21 13 23 9 4 9 6 -1 6 -7 1 -15 -6 -18 -14z"/>
<path d="M5383 3704 c21 -7 23 -24 2 -24 -8 0 -15 -7 -15 -15 0 -8 9 -15 21
-15 29 0 23 54 -6 57 -16 1 -16 1 -2 -3z"/>
<path d="M5421 3678 c2 -30 2 -30 6 -6 2 15 12 29 21 31 12 3 10 5 -5 6 -20 1
-23 -4 -22 -31z"/>
<path d="M5491 3678 c2 -30 2 -31 6 -5 5 34 30 36 36 2 4 -23 4 -23 3 2 -1 21
-7 29 -23 31 -20 3 -23 -1 -22 -30z"/>
<path d="M5554 3695 c-9 -23 3 -45 23 -44 17 1 17 2 1 6 -10 2 -18 13 -18 23
0 10 8 21 18 23 16 4 16 5 -1 6 -10 0 -20 -6 -23 -14z"/>
<path d="M5611 3678 c2 -31 2 -31 6 -5 2 15 8 27 13 27 5 0 11 -12 13 -27 l4
-28 2 27 c0 16 8 28 19 31 9 3 0 5 -20 6 -37 1 -38 0 -37 -31z"/>
<path d="M5761 3678 c2 -28 2 -29 6 -8 3 14 10 28 17 32 7 5 5 8 -6 8 -14 0
-18 -8 -17 -32z"/>
<path d="M5804 3696 c-9 -23 3 -46 23 -45 16 0 16 1 -2 9 -18 8 -18 9 -2 9 12
1 17 7 15 18 -4 22 -27 28 -34 9z m26 -6 c0 -5 -4 -10 -10 -10 -5 0 -10 5 -10
10 0 6 5 10 10 10 6 0 10 -4 10 -10z"/>
<path d="M8280 3686 c0 -8 -10 -16 -22 -18 -19 -2 -23 -9 -23 -38 0 -31 3 -35
28 -38 27 -3 27 -2 27 52 0 31 -2 56 -5 56 -3 0 -5 -6 -5 -14z m-5 -56 c0 -13
-6 -25 -12 -27 -16 -6 -27 21 -19 43 9 23 31 11 31 -16z"/>
<path d="M9040 3686 c0 -7 -9 -16 -21 -19 -30 -8 -24 -71 9 -75 21 -3 22 0 22
52 0 31 -2 56 -5 56 -3 0 -5 -6 -5 -14z m0 -56 c0 -20 -5 -30 -15 -30 -10 0
-15 10 -15 30 0 20 5 30 15 30 10 0 15 -10 15 -30z"/>
<path d="M9161 3648 c0 -32 2 -58 7 -58 4 0 6 19 4 43 -5 70 -10 76 -11 15z"/>
<path d="M9832 3646 c-2 -54 -1 -58 12 -40 15 19 15 19 31 -1 16 -20 16 -19 5
3 -6 12 -8 33 -5 45 6 20 5 21 -8 5 -20 -25 -25 -23 -30 15 -2 19 -4 8 -5 -27z"/>
<path d="M9452 3643 c4 -59 24 -69 21 -11 -1 24 -2 46 -2 51 -1 4 -6 7 -12 7
-6 0 -9 -19 -7 -47z"/>
<path d="M7894 3656 c-12 -31 0 -61 26 -63 l25 -3 -25 12 -25 12 28 4 c29 4
35 20 15 40 -16 16 -37 15 -44 -2z m40 -11 c4 -10 -1 -15 -14 -15 -20 0 -26
11 -13 23 10 11 20 8 27 -8z"/>
<path d="M7971 3628 c2 -42 2 -42 8 -9 9 49 29 51 34 4 l4 -38 -1 40 c-1 33
-5 41 -23 43 -21 3 -23 0 -22 -40z"/>
<path d="M8092 3658 c-23 -23 -7 -68 25 -68 7 0 13 4 13 9 0 5 -8 8 -17 7 -13
-1 -18 6 -18 24 0 18 5 25 17 24 10 -1 15 2 12 7 -7 12 -18 11 -32 -3z"/>
<path d="M8178 3660 c12 -5 22 -14 22 -19 0 -5 -10 -11 -22 -13 -33 -4 -29
-32 5 -36 27 -3 28 -2 25 35 -3 32 -7 38 -28 40 -25 3 -25 3 -2 -7z m17 -50
c-3 -5 -13 -10 -21 -10 -8 0 -14 5 -14 10 0 6 9 10 21 10 11 0 17 -4 14 -10z"/>
<path d="M8338 3660 c12 -5 22 -14 22 -19 0 -5 -10 -11 -22 -13 -33 -4 -29
-32 5 -36 23 -3 27 0 27 22 0 39 -10 56 -34 55 -21 0 -21 0 2 -9z m17 -50 c-3
-5 -13 -10 -21 -10 -8 0 -14 5 -14 10 0 6 9 10 21 10 11 0 17 -4 14 -10z"/>
<path d="M8431 3613 c1 -32 3 -51 5 -43 3 9 15 20 27 25 40 18 29 75 -14 75
-17 0 -19 -8 -18 -57z m43 32 c7 -18 -2 -45 -15 -45 -5 0 -12 7 -15 15 -7 18
2 45 15 45 5 0 11 -7 15 -15z"/>
<path d="M8510 3655 c-10 -12 -10 -21 -1 -41 17 -38 46 -28 46 16 0 39 -23 52
-45 25z m40 -25 c0 -19 -5 -30 -14 -30 -17 0 -28 24 -20 45 11 27 34 17 34
-15z"/>
<path d="M8584 3655 c-7 -18 3 -35 22 -35 20 0 18 -18 -3 -23 -14 -4 -13 -5 3
-6 33 -2 39 28 9 39 -31 12 -31 18 -2 30 l22 9 -23 0 c-12 1 -25 -6 -28 -14z"/>
<path d="M8663 3630 c0 -25 2 -35 4 -22 2 12 2 32 0 45 -2 12 -4 2 -4 -23z"/>
<path d="M8700 3650 c-18 -34 24 -83 44 -51 4 5 -3 7 -14 4 -17 -5 -20 0 -20
27 0 27 3 32 20 27 11 -3 18 -1 14 4 -9 16 -33 10 -44 -11z"/>
<path d="M8773 3630 c0 -25 2 -35 4 -22 2 12 2 32 0 45 -2 12 -4 2 -4 -23z"/>
<path d="M8804 3655 c-10 -26 5 -65 26 -65 21 0 34 31 25 60 -7 23 -43 27 -51
5z m41 -25 c0 -13 -6 -25 -12 -27 -16 -6 -27 21 -19 43 9 23 31 11 31 -16z"/>
<path d="M8881 3628 c2 -43 2 -43 8 -8 4 22 12 35 21 35 9 0 18 -13 22 -35 l6
-35 -1 40 c-2 36 -5 40 -29 43 -27 3 -28 2 -27 -40z"/>
<path d="M9087 3664 c-4 -4 -7 -20 -7 -36 0 -31 24 -48 42 -30 8 8 5 9 -11 5
-12 -3 -21 -1 -21 6 0 6 9 11 21 11 15 0 20 5 17 22 -3 23 -27 35 -41 22z m33
-19 c0 -8 -7 -15 -15 -15 -8 0 -15 7 -15 15 0 8 7 15 15 15 8 0 15 -7 15 -15z"/>
<path d="M9231 3660 c0 -8 6 -28 13 -45 10 -22 15 -26 20 -15 18 47 25 70 21
70 -3 0 -10 -12 -16 -27 l-11 -28 -14 30 c-7 17 -13 23 -13 15z"/>
<path d="M9312 3658 c-17 -17 -15 -55 4 -62 28 -11 40 -5 14 7 l-25 11 28 4
c15 2 27 9 27 16 0 12 -19 36 -30 36 -3 0 -11 -5 -18 -12z m36 -16 c2 -7 -6
-12 -17 -12 -21 0 -27 11 -14 24 9 9 26 2 31 -12z"/>
<path d="M9387 3663 c-4 -3 -7 -19 -7 -35 0 -31 24 -48 42 -30 7 7 4 10 -8 9
-14 -2 -19 5 -19 23 0 18 5 25 17 24 10 -1 15 2 12 7 -6 11 -28 12 -37 2z"/>
<path d="M9504 3656 c-11 -28 0 -61 21 -61 16 0 20 7 20 35 0 25 -5 36 -18 38
-9 2 -20 -3 -23 -12z m36 -26 c0 -20 -5 -30 -15 -30 -10 0 -15 10 -15 30 0 20
5 30 15 30 10 0 15 -10 15 -30z"/>
<path d="M9581 3628 c2 -34 3 -37 6 -13 2 17 12 36 21 43 14 11 13 12 -6 12
-19 0 -22 -5 -21 -42z"/>
<path d="M9670 3616 c0 -31 5 -56 10 -56 6 0 10 6 10 14 0 7 9 16 21 19 16 4
20 12 17 39 -2 28 -7 34 -30 36 -28 3 -28 2 -28 -52z m50 14 c0 -20 -5 -30
-15 -30 -10 0 -15 10 -15 30 0 20 5 30 15 30 10 0 15 -10 15 -30z"/>
<path d="M9755 3650 c-9 -29 4 -60 25 -60 10 0 22 9 25 20 9 29 -4 60 -25 60
-10 0 -22 -9 -25 -20z m40 -20 c0 -13 -6 -25 -12 -27 -16 -6 -27 21 -19 43 9
23 31 11 31 -16z"/>
<path d="M9909 3646 c-9 -20 -9 -29 1 -41 14 -17 36 -20 44 -6 4 5 -3 7 -14 4
-11 -3 -20 0 -20 6 0 6 9 11 21 11 15 0 20 5 17 22 -4 33 -35 35 -49 4z m39
-4 c2 -7 -3 -12 -12 -12 -9 0 -16 7 -16 16 0 17 22 14 28 -4z"/>
<path d="M9980 3630 c0 -47 15 -54 18 -8 3 37 7 43 21 33 6 -3 12 -21 12 -38
l2 -32 6 34 c8 48 31 53 31 7 0 -20 5 -36 10 -36 13 0 13 40 0 60 -5 8 -28 16
-54 17 l-46 3 0 -40z"/>
<path d="M10114 3656 c-11 -28 0 -61 20 -61 27 0 44 30 30 53 -15 22 -43 27
-50 8z m41 -26 c0 -13 -6 -25 -12 -27 -16 -6 -27 21 -19 43 9 23 31 11 31 -16z"/>
<path d="M10191 3628 c2 -43 2 -43 8 -9 8 48 31 53 31 7 0 -20 5 -36 10 -36
14 0 12 54 -2 68 -7 7 -20 12 -30 12 -15 0 -18 -8 -17 -42z"/>
<path d="M10277 3664 c-4 -4 -7 -20 -7 -36 0 -31 24 -48 42 -30 8 8 5 9 -11 5
-12 -3 -21 -1 -21 6 0 6 9 11 21 11 15 0 20 5 17 22 -3 23 -27 35 -41 22z m33
-19 c0 -8 -7 -15 -15 -15 -8 0 -15 7 -15 15 0 8 7 15 15 15 8 0 15 -7 15 -15z"/>
<path d="M10354 3655 c-7 -18 3 -35 22 -35 21 0 17 -18 -6 -23 -18 -4 -18 -5
2 -3 29 1 36 26 9 33 -25 6 -28 30 -3 36 16 4 16 5 -1 6 -10 0 -20 -6 -23 -14z"/>
<path d="M7892 3445 c1 -47 2 -52 7 -25 4 22 12 35 21 35 9 0 18 -13 22 -35
l6 -35 -1 40 c-2 33 -6 41 -24 43 -12 2 -24 11 -26 20 -3 9 -5 -10 -5 -43z"/>
<path d="M9652 3445 c1 -47 2 -52 7 -25 4 22 12 35 21 35 9 0 18 -13 22 -35
l6 -35 -1 40 c-2 33 -6 41 -24 43 -12 2 -24 11 -26 20 -3 9 -5 -10 -5 -43z"/>
<path d="M8598 3477 c-7 -22 7 -80 20 -83 7 -1 8 0 2 3 -12 6 -13 60 -1 65 5
2 3 8 -4 15 -10 9 -14 9 -17 0z"/>
<path d="M9490 3456 c0 -37 8 -66 19 -66 5 0 6 47 2 93 -1 4 -5 7 -11 7 -5 0
-10 -15 -10 -34z"/>
<path d="M7998 3460 c12 -5 22 -14 22 -19 0 -5 -10 -11 -22 -13 -33 -4 -29
-32 5 -36 23 -3 27 0 27 22 0 39 -10 56 -34 55 -21 0 -21 0 2 -9z m17 -50 c-3
-5 -13 -10 -21 -10 -8 0 -14 5 -14 10 0 6 9 10 21 10 11 0 17 -4 14 -10z"/>
<path d="M8055 3429 c12 -34 13 -45 3 -57 -11 -13 -11 -14 0 -8 14 9 29 41 37
84 6 26 6 26 -8 -3 l-15 -30 -11 28 c-17 43 -22 32 -6 -14z"/>
<path d="M8164 3430 c1 -28 5 -36 24 -38 20 -3 22 0 21 40 -2 42 -2 42 -8 9
-8 -46 -29 -51 -34 -9 l-4 33 1 -35z"/>
<path d="M8241 3428 c2 -43 2 -43 8 -9 8 48 31 53 31 7 0 -20 5 -36 10 -36 14
0 12 54 -2 68 -7 7 -20 12 -30 12 -15 0 -18 -8 -17 -42z"/>
<path d="M8361 3413 c1 -32 3 -51 5 -43 3 9 15 20 27 25 40 18 29 75 -14 75
-17 0 -19 -8 -18 -57z m43 32 c7 -18 -2 -45 -15 -45 -5 0 -12 7 -15 15 -7 18
2 45 15 45 5 0 11 -7 15 -15z"/>
<path d="M8444 3430 c1 -28 5 -36 24 -38 20 -3 22 0 20 40 l-1 43 -4 -37 c-5
-48 -30 -51 -36 -5 -4 32 -4 32 -3 -3z"/>
<path d="M8521 3428 c2 -42 2 -42 8 -9 9 49 29 51 34 4 l4 -38 -1 40 c-1 33
-5 41 -23 43 -21 3 -23 0 -22 -40z"/>
<path d="M8650 3451 c-18 -35 24 -85 44 -52 4 5 -3 7 -14 4 -11 -3 -20 0 -20
6 0 6 9 11 21 11 15 0 20 5 17 22 -4 30 -34 35 -48 9z m38 -9 c2 -7 -3 -12
-12 -12 -9 0 -16 7 -16 16 0 17 22 14 28 -4z"/>
<path d="M8720 3430 c0 -22 5 -40 10 -40 6 0 10 15 10 34 0 24 5 36 18 39 10
3 6 5 -10 6 -26 1 -28 -2 -28 -39z"/>
<path d="M8784 3456 c-11 -28 0 -61 20 -61 27 0 44 30 30 53 -15 22 -43 27
-50 8z m41 -26 c0 -13 -6 -25 -12 -27 -16 -6 -27 21 -19 43 9 23 31 11 31 -16z"/>
<path d="M8894 3456 c-11 -29 1 -61 23 -64 12 -2 24 -11 26 -20 3 -9 5 9 6 41
1 55 0 57 -24 57 -14 0 -28 -6 -31 -14z m41 -26 c0 -27 -22 -39 -31 -16 -8 22
3 49 19 43 6 -2 12 -14 12 -27z"/>
<path d="M8984 3430 c1 -28 5 -36 24 -38 20 -3 22 0 20 40 l-1 43 -4 -37 c-5
-48 -30 -51 -36 -5 -4 32 -4 32 -3 -3z"/>
<path d="M9060 3451 c-13 -26 3 -62 28 -60 16 1 16 2 0 6 -25 6 -22 23 3 23
15 0 20 5 17 22 -4 30 -34 35 -48 9z m38 -9 c2 -7 -3 -12 -12 -12 -9 0 -16 7
-16 16 0 17 22 14 28 -4z"/>
<path d="M9193 3464 c24 -7 21 -30 -4 -37 -27 -7 -20 -31 10 -35 20 -3 22 0
19 35 -2 29 -7 38 -23 40 -16 1 -16 1 -2 -3z m17 -54 c0 -5 -7 -10 -15 -10 -8
0 -15 5 -15 10 0 6 7 10 15 10 8 0 15 -4 15 -10z"/>
<path d="M9251 3413 c1 -32 3 -51 5 -43 3 9 15 20 27 25 40 18 29 75 -14 75
-17 0 -19 -8 -18 -57z m43 32 c7 -20 -4 -47 -18 -42 -17 6 -20 57 -3 57 8 0
17 -7 21 -15z"/>
<path d="M9334 3430 c1 -28 5 -36 24 -38 20 -3 22 0 20 40 l-1 43 -4 -37 c-5
-48 -30 -51 -36 -5 -4 32 -4 32 -3 -3z"/>
<path d="M9411 3428 c2 -43 2 -43 8 -9 8 48 31 53 31 7 0 -20 5 -36 10 -36 14
0 12 54 -2 68 -7 7 -20 12 -30 12 -15 0 -18 -8 -17 -42z"/>
<path d="M9547 3464 c-4 -4 -7 -20 -7 -36 0 -31 24 -48 42 -30 8 8 5 9 -11 5
-12 -3 -21 -1 -21 6 0 6 9 11 21 11 15 0 20 5 17 22 -3 23 -27 35 -41 22z m33
-19 c0 -8 -7 -15 -15 -15 -8 0 -15 7 -15 15 0 8 7 15 15 15 8 0 15 -7 15 -15z"/>
<path d="M9740 3466 c0 -2 9 -6 20 -9 11 -3 20 -1 20 4 0 5 -9 9 -20 9 -11 0
-20 -2 -20 -4z"/>
<path d="M9817 3463 c-4 -3 -7 -19 -7 -35 0 -31 24 -48 42 -30 8 8 5 9 -11 5
-18 -5 -21 -1 -21 27 0 27 3 32 20 27 11 -3 18 -1 14 4 -6 11 -28 12 -37 2z"/>
<path d="M9883 3430 c0 -25 2 -35 4 -22 2 12 2 32 0 45 -2 12 -4 2 -4 -23z"/>
<path d="M9943 3464 c23 -7 22 -30 -3 -37 -30 -8 -25 -37 6 -37 23 0 25 3 22
37 -2 29 -8 38 -23 40 -16 1 -16 1 -2 -3z m17 -54 c0 -5 -7 -10 -15 -10 -8 0
-15 5 -15 10 0 6 7 10 15 10 8 0 15 -4 15 -10z"/>
<path d="M10031 3448 c-2 -40 9 -58 35 -58 22 0 24 4 23 43 l-2 42 -6 -35 c-4
-22 -12 -35 -21 -35 -9 0 -17 13 -21 35 -5 29 -7 31 -8 8z"/>
<path d="M10112 3431 c-1 -23 3 -41 8 -41 6 0 10 16 10 36 0 46 22 41 32 -7 6
-34 6 -34 5 6 -2 35 -5 40 -28 43 -24 3 -26 0 -27 -37z"/>
<path d="M9760 3431 c-34 -9 -32 -35 3 -39 23 -3 27 0 27 22 0 14 -1 26 -2 25
-2 -1 -14 -4 -28 -8z m15 -21 c-3 -5 -13 -10 -21 -10 -8 0 -14 5 -14 10 0 6 9
10 21 10 11 0 17 -4 14 -10z"/>
<path d="M8053 3245 c0 -33 1 -52 4 -42 5 21 22 22 29 2 4 -8 10 -15 16 -15 5
0 2 10 -6 22 -12 16 -13 26 -4 42 11 21 11 21 -10 3 -20 -19 -21 -18 -25 15
-2 18 -4 6 -4 -27z"/>
<path d="M8790 3261 c0 -22 3 -46 6 -55 12 -32 19 -15 16 39 -4 63 -22 76 -22
16z"/>
<path d="M8872 3245 c1 -47 2 -52 7 -25 4 22 12 35 21 35 9 0 18 -13 22 -35
l6 -35 -1 40 c-2 33 -6 41 -24 43 -12 2 -24 11 -26 20 -3 9 -5 -10 -5 -43z"/>
<path d="M9671 3248 c0 -32 2 -58 7 -58 4 0 6 19 4 43 -5 70 -10 76 -11 15z"/>
<path d="M4821 3243 c1 -37 3 -42 8 -23 7 23 8 24 18 6 10 -18 10 -18 18 0 7
17 9 17 15 -6 6 -19 8 -14 9 25 l0 50 -18 -34 -18 -34 -11 32 c-15 44 -22 39
-21 -16z"/>
<path d="M4932 3270 c-11 -29 -25 -81 -16 -62 3 6 14 12 24 12 10 0 21 -6 23
-12 12 -29 5 19 -8 52 l-13 35 -10 -25z m14 -37 c-10 -10 -19 5 -10 18 6 11 8
11 12 0 2 -7 1 -15 -2 -18z"/>
<path d="M4990 3285 c0 -6 5 -16 11 -22 8 -8 8 -17 0 -31 -14 -27 -14 -43 1
-18 11 19 11 19 24 1 16 -22 18 -12 4 16 -8 13 -7 26 0 42 10 20 10 21 -4 4
-14 -18 -15 -18 -25 0 -6 10 -11 13 -11 8z"/>
<path d="M5137 3268 c-4 -12 -4 -24 -2 -27 3 -2 5 1 5 8 0 7 5 9 10 6 17 -10
11 -25 -10 -25 -11 0 -20 -4 -20 -9 0 -5 9 -7 21 -4 12 4 25 0 31 -8 10 -15 4
14 -13 59 -11 28 -15 28 -22 0z"/>
<path d="M5187 3282 c6 -4 13 -25 16 -47 l4 -40 1 42 c2 30 7 43 20 46 9 3 1
5 -18 6 -19 0 -30 -3 -23 -7z"/>
<path d="M5262 3270 c-11 -29 -25 -81 -16 -62 3 6 14 12 24 12 10 0 21 -6 23
-12 12 -29 5 19 -8 52 l-13 35 -10 -25z m14 -37 c-10 -10 -19 5 -10 18 6 11 8
11 12 0 2 -7 1 -15 -2 -18z"/>
<path d="M5325 3280 c-4 -6 -4 -14 -1 -17 3 -4 6 -1 6 5 0 7 7 12 15 12 17 0
20 -37 5 -60 -9 -13 -11 -13 -21 0 -9 13 -10 13 -6 0 2 -8 14 -16 26 -18 20
-3 22 0 19 40 -2 30 -8 44 -20 46 -9 2 -19 -2 -23 -8z"/>
<path d="M5442 3253 c-1 -30 -6 -43 -16 -43 -8 0 -17 6 -19 13 -4 9 -6 9 -6
-1 -1 -17 28 -27 40 -15 6 6 9 28 6 49 l-4 39 -1 -42z"/>
<path d="M5480 3281 c0 -5 9 -7 20 -4 11 3 20 7 20 9 0 2 -9 4 -20 4 -11 0
-20 -4 -20 -9z"/>
<path d="M5546 3275 c-3 -9 4 -21 19 -31 32 -21 32 -38 -1 -31 -16 3 -22 1
-16 -5 15 -15 46 -5 50 15 2 11 -6 20 -22 27 -32 12 -33 18 -3 30 22 9 22 9 1
9 -12 1 -24 -6 -28 -14z"/>
<path d="M6137 3282 c6 -4 13 -25 16 -47 l4 -40 1 42 c1 23 8 44 15 46 6 3 -1
6 -18 6 -17 0 -25 -3 -18 -7z"/>
<path d="M6203 3245 c0 -27 2 -38 4 -22 2 15 2 37 0 50 -2 12 -4 0 -4 -28z"/>
<path d="M6231 3243 c1 -26 3 -40 6 -31 2 9 14 18 26 20 16 2 22 10 22 28 0
20 -6 26 -27 28 -27 3 -28 2 -27 -45z m44 17 c0 -8 -8 -16 -17 -18 -13 -2 -18
3 -18 18 0 15 5 20 18 18 9 -2 17 -10 17 -18z"/>
<path d="M6315 3280 c-4 -6 -4 -14 -1 -17 3 -4 6 -1 6 5 0 22 29 12 33 -10 5
-20 5 -20 4 2 -2 26 -30 39 -42 20z"/>
<path d="M6812 3245 c-1 -36 1 -46 8 -35 9 13 11 13 20 0 5 -8 10 -10 10 -4 0
6 -6 17 -14 24 -8 6 -17 24 -19 38 -2 15 -5 5 -5 -23z"/>
<path d="M3928 3269 c-6 -17 3 -69 11 -69 7 0 6 69 -2 76 -3 3 -7 0 -9 -7z"/>
<path d="M4288 3269 c-6 -17 3 -69 11 -69 7 0 6 69 -2 76 -3 3 -7 0 -9 -7z"/>
<path d="M4420 3247 c0 -20 3 -38 8 -41 8 -5 7 62 -2 71 -3 4 -6 -10 -6 -30z"/>
<path d="M6418 3265 c-6 -7 3 -65 11 -65 7 0 7 58 -1 65 -2 3 -7 3 -10 0z"/>
<path d="M7891 3213 c1 -32 3 -50 6 -41 2 9 14 18 26 20 18 2 22 10 22 38 0
31 -3 35 -27 38 -28 3 -28 3 -27 -55z m44 17 c0 -13 -5 -25 -12 -27 -13 -5
-27 32 -18 47 11 18 30 5 30 -20z"/>
<path d="M7974 3256 c-11 -28 0 -61 20 -61 27 0 44 30 30 53 -15 22 -43 27
-50 8z m41 -26 c0 -27 -22 -39 -31 -16 -8 22 3 49 19 43 6 -2 12 -14 12 -27z"/>
<path d="M8132 3258 c-24 -24 -6 -69 28 -67 9 0 5 5 -10 12 l-25 11 28 4 c15
2 27 9 27 16 0 12 -19 36 -30 36 -3 0 -11 -5 -18 -12z m36 -16 c2 -7 -6 -12
-17 -12 -21 0 -27 11 -14 24 9 9 26 2 31 -12z"/>
<path d="M8201 3228 l2 -43 6 35 c4 22 12 35 21 35 9 0 17 -13 21 -35 l6 -35
4 34 c6 47 27 51 32 7 l4 -36 -1 37 c-1 37 -1 37 -48 40 l-48 3 1 -42z"/>
<path d="M8330 3255 c-10 -12 -10 -21 -1 -41 17 -38 46 -28 46 16 0 39 -23 52
-45 25z m40 -25 c0 -19 -5 -30 -14 -30 -17 0 -28 24 -20 45 11 27 34 17 34
-15z"/>
<path d="M8400 3231 c0 -23 5 -41 10 -41 6 0 10 16 10 36 0 46 22 41 32 -7 6
-34 6 -34 5 6 -2 36 -5 40 -29 43 -27 3 -28 1 -28 -37z"/>
<path d="M8524 3256 c-10 -27 1 -61 21 -64 l20 -4 -20 16 c-19 15 -19 15 8 16
29 0 36 17 15 38 -16 16 -37 15 -44 -2z m40 -11 c4 -10 -1 -15 -14 -15 -20 0
-26 11 -13 23 10 11 20 8 27 -8z"/>
<path d="M8601 3228 c2 -43 2 -43 8 -9 8 48 31 53 31 7 0 -20 5 -36 10 -36 14
0 12 54 -2 68 -7 7 -20 12 -30 12 -15 0 -18 -8 -17 -42z"/>
<path d="M8720 3251 c-13 -26 3 -62 28 -60 16 1 16 2 0 6 -25 6 -22 23 3 23
15 0 20 5 17 22 -4 30 -34 35 -48 9z m40 -6 c0 -8 -7 -15 -15 -15 -8 0 -15 7
-15 15 0 8 7 15 15 15 8 0 15 -7 15 -15z"/>
<path d="M8954 3256 c-10 -27 1 -61 21 -64 l20 -4 -20 16 c-19 15 -19 15 8 16
29 0 36 17 15 38 -16 16 -37 15 -44 -2z m40 -11 c4 -10 -1 -15 -14 -15 -20 0
-26 11 -13 23 10 11 20 8 27 -8z"/>
<path d="M9053 3264 c23 -7 22 -30 -3 -37 -30 -8 -25 -37 6 -37 23 0 25 3 22
37 -2 29 -8 38 -23 40 -16 1 -16 1 -2 -3z m17 -54 c0 -5 -7 -10 -15 -10 -8 0
-15 5 -15 10 0 6 7 10 15 10 8 0 15 -4 15 -10z"/>
<path d="M9111 3213 c1 -32 3 -50 6 -40 2 9 10 17 18 17 7 0 18 7 25 15 18 21
-2 65 -30 65 -18 0 -20 -6 -19 -57z m43 32 c7 -18 -2 -45 -15 -45 -5 0 -12 7
-15 15 -7 18 2 45 15 45 5 0 11 -7 15 -15z"/>
<path d="M9283 3264 c23 -7 22 -30 -3 -37 -30 -8 -25 -37 6 -37 23 0 25 3 22
37 -2 29 -8 38 -23 40 -16 1 -16 1 -2 -3z m17 -54 c0 -5 -7 -10 -15 -10 -8 0
-15 5 -15 10 0 6 7 10 15 10 8 0 15 -4 15 -10z"/>
<path d="M9340 3250 c-18 -34 24 -83 44 -51 4 5 -3 7 -14 4 -17 -5 -20 0 -20
27 0 27 3 32 20 27 11 -3 18 -1 14 4 -9 16 -33 10 -44 -11z"/>
<path d="M9428 3260 c12 -5 22 -14 22 -19 0 -5 -10 -11 -22 -13 -33 -4 -29
-32 5 -36 23 -3 27 0 27 22 0 39 -10 56 -34 55 -21 0 -21 0 2 -9z m17 -50 c-3
-5 -13 -10 -21 -10 -8 0 -14 5 -14 10 0 6 9 10 21 10 11 0 17 -4 14 -10z"/>
<path d="M9524 3255 c-7 -18 3 -35 22 -35 21 0 17 -18 -6 -23 -18 -4 -18 -5 2
-3 29 1 36 26 9 33 -25 6 -28 30 -3 36 16 4 16 5 -1 6 -10 0 -20 -6 -23 -14z"/>
<path d="M9594 3256 c-11 -28 0 -61 20 -61 27 0 44 30 30 53 -15 22 -43 27
-50 8z m41 -26 c0 -27 -22 -39 -31 -16 -8 22 3 49 19 43 6 -2 12 -14 12 -27z"/>
<path d="M9714 3256 c-11 -28 0 -61 20 -61 27 0 44 30 30 53 -15 22 -43 27
-50 8z m41 -26 c0 -27 -22 -39 -31 -16 -8 22 3 49 19 43 6 -2 12 -14 12 -27z"/>
<path d="M3873 3253 c21 -5 23 -23 2 -23 -8 0 -15 -7 -15 -15 0 -8 9 -15 20
-15 16 0 20 7 20 30 0 25 -4 30 -22 29 -17 -1 -19 -2 -5 -6z"/>
<path d="M3970 3256 c0 -2 7 -6 15 -10 8 -3 15 -1 15 4 0 6 -7 10 -15 10 -8 0
-15 -2 -15 -4z"/>
<path d="M4043 3253 c9 -2 17 -13 17 -24 0 -24 -15 -25 -30 -1 -11 16 -11 16
-6 -1 3 -10 6 -21 6 -23 0 -2 6 -4 14 -4 8 0 17 -6 19 -12 3 -7 6 6 6 30 1 37
-1 42 -21 41 -17 -1 -19 -2 -5 -6z"/>
<path d="M4092 3240 c0 -14 2 -19 5 -12 2 6 2 18 0 25 -3 6 -5 1 -5 -13z"/>
<path d="M4130 3236 c0 -15 -7 -26 -17 -29 -14 -4 -12 -5 5 -6 18 -1 22 4 22
29 0 17 -2 30 -5 30 -3 0 -5 -11 -5 -24z"/>
<path d="M4164 3245 c-9 -22 3 -45 23 -44 16 0 16 1 -2 9 -16 7 -17 9 -3 9 9
1 19 5 22 10 4 5 -3 7 -14 4 -11 -3 -20 -1 -20 5 0 6 8 13 18 15 16 4 16 5 -1
6 -10 0 -20 -6 -23 -14z"/>
<path d="M4373 3254 c23 -7 22 -20 -4 -27 -25 -7 -16 -27 12 -27 29 0 23 54
-6 57 -16 1 -16 1 -2 -3z m14 -40 c-3 -3 -12 -4 -19 -1 -8 3 -5 6 6 6 11 1 17
-2 13 -5z"/>
<path d="M4473 3253 c21 -5 23 -23 2 -23 -8 0 -15 -7 -15 -15 0 -8 9 -15 20
-15 16 0 20 7 20 30 0 25 -4 30 -22 29 -17 -1 -19 -2 -5 -6z"/>
<path d="M4527 3253 c-13 -13 -7 -44 11 -50 9 -4 20 -11 24 -17 4 -6 8 8 8 32
0 34 -3 42 -18 42 -10 0 -22 -3 -25 -7z m33 -23 c0 -11 -7 -20 -15 -20 -8 0
-15 9 -15 20 0 11 7 20 15 20 8 0 15 -9 15 -20z"/>
<path d="M4594 3230 c1 -18 7 -26 24 -28 19 -3 22 1 21 30 -2 30 -2 31 -6 6
-5 -34 -30 -37 -36 -5 -3 19 -4 19 -3 -3z"/>
<path d="M4664 3245 c-9 -22 3 -45 23 -44 16 0 15 1 -2 8 l-20 8 20 5 c16 5
17 6 3 7 -10 0 -18 6 -18 12 0 6 7 8 16 5 8 -3 12 -2 9 4 -9 15 -25 12 -31 -5z"/>
<path d="M4738 3253 c7 -3 16 -2 19 1 4 3 -2 6 -13 5 -11 0 -14 -3 -6 -6z"/>
<path d="M5804 3245 c-9 -22 3 -45 23 -44 16 0 15 1 -2 8 l-20 8 20 5 c16 5
17 6 3 7 -10 0 -18 6 -18 12 0 6 7 8 16 5 8 -3 12 -2 9 4 -9 15 -25 12 -31 -5z"/>
<path d="M5861 3228 c2 -30 2 -31 6 -5 5 34 30 36 36 2 4 -23 4 -23 3 2 -1 21
-7 29 -23 31 -20 3 -23 -1 -22 -30z"/>
<path d="M5934 3230 c1 -18 7 -26 25 -28 14 -2 21 0 17 7 -4 5 -13 8 -21 5 -9
-4 -15 3 -18 18 -4 21 -4 21 -3 -2z"/>
<path d="M6001 3228 c2 -30 2 -31 6 -5 2 15 8 27 13 27 5 0 11 -12 13 -27 l4
-28 2 28 c1 34 28 36 34 2 4 -23 4 -23 3 2 -1 25 -5 28 -38 31 -37 3 -38 2
-37 -30z"/>
<path d="M6490 3251 c0 -6 7 -8 15 -5 11 4 15 0 15 -16 0 -16 -4 -20 -15 -16
-8 3 -15 1 -15 -5 0 -6 8 -9 18 -7 11 2 17 12 17 28 0 16 -6 26 -17 28 -10 2
-18 -1 -18 -7z"/>
<path d="M6557 3253 c-13 -12 -7 -44 9 -50 16 -6 34 12 34 32 -1 6 -5 2 -11
-7 -13 -24 -29 -23 -29 1 0 11 8 22 18 24 14 4 14 5 1 6 -9 0 -19 -2 -22 -6z"/>
<path d="M6681 3218 c0 -24 3 -37 6 -30 2 6 11 12 19 12 8 0 14 4 14 10 0 5
-7 7 -15 4 -11 -4 -15 0 -15 16 0 16 4 20 15 16 8 -3 15 -1 15 4 0 6 -9 10
-20 10 -17 0 -20 -6 -19 -42z"/>
<path d="M6744 3246 c-9 -24 4 -48 23 -44 12 2 18 12 18 28 0 29 -32 41 -41
16z m36 -16 c0 -11 -7 -20 -15 -20 -8 0 -15 9 -15 20 0 11 7 20 15 20 8 0 15
-9 15 -20z"/>
<path d="M6874 3245 c-9 -22 3 -45 23 -44 16 0 15 1 -2 8 l-20 8 20 5 c16 5
17 6 3 7 -10 0 -18 6 -18 12 0 6 7 8 16 5 8 -3 12 -2 9 4 -9 15 -25 12 -31 -5z"/>
<path d="M6940 3250 c0 -5 6 -7 14 -4 10 4 16 -3 19 -23 l4 -28 2 27 c0 16 8
28 19 31 9 3 0 5 -20 6 -21 0 -38 -3 -38 -9z"/>
<path d="M7047 3253 c-11 -10 -8 -41 4 -49 6 -3 16 -1 22 5 9 9 8 11 -5 6 -14
-6 -18 -2 -18 15 0 16 4 20 16 16 8 -3 12 -2 9 4 -7 12 -19 13 -28 3z"/>
<path d="M7110 3251 c0 -6 6 -8 14 -5 10 4 16 -3 19 -20 4 -26 4 -26 3 1 -1
18 -7 29 -18 31 -10 2 -18 -1 -18 -7z"/>
<path d="M5488 3243 c6 -2 18 -2 25 0 6 3 1 5 -13 5 -14 0 -19 -2 -12 -5z"/>
<path d="M4725 3230 c3 -6 14 -10 23 -11 14 0 13 -2 -3 -10 -17 -7 -17 -8 -2
-6 25 3 23 19 -3 29 -13 5 -19 4 -15 -2z"/>
<path d="M7012 3220 c0 -14 2 -19 5 -12 2 6 2 18 0 25 -3 6 -5 1 -5 -13z"/>
<path d="M3965 3220 c-7 -11 22 -26 32 -16 4 3 -2 6 -13 7 -18 0 -18 1 1 9 16
7 17 9 3 9 -9 1 -20 -4 -23 -9z"/>
<path d="M6314 3218 c2 -7 11 -13 21 -13 10 0 19 6 21 13 1 7 0 8 -3 2 -2 -5
-11 -10 -18 -10 -7 0 -16 5 -18 10 -3 6 -4 5 -3 -2z"/>
<path d="M5488 3203 c6 -2 18 -2 25 0 6 3 1 5 -13 5 -14 0 -19 -2 -12 -5z"/>
<path d="M8831 3048 c0 -32 2 -58 7 -58 4 0 6 19 4 43 -5 70 -10 76 -11 15z"/>
<path d="M9564 3087 c-3 -8 -4 -32 -2 -53 2 -31 7 -39 22 -39 11 0 20 6 22 13
1 7 0 8 -3 2 -2 -5 -11 -10 -19 -10 -10 0 -14 13 -14 45 0 55 26 64 33 13 l5
-33 -2 35 c-1 25 -6 36 -19 38 -9 2 -20 -3 -23 -11z"/>
<path d="M10002 3048 c2 -33 8 -53 17 -56 9 -3 11 0 6 8 -5 7 -7 33 -6 57 0
25 -3 43 -9 43 -7 0 -10 -20 -8 -52z"/>
<path d="M8478 3080 c-5 -17 3 -90 11 -90 3 0 5 21 4 46 -1 46 -8 65 -15 44z"/>
<path d="M7891 3028 c2 -42 2 -43 8 -9 4 21 14 37 26 42 17 7 16 8 -7 8 -26 1
-28 -1 -27 -41z"/>
<path d="M7957 3064 c-4 -4 -7 -20 -7 -36 0 -31 24 -48 42 -30 8 8 5 9 -11 5
-12 -3 -21 -1 -21 6 0 6 9 11 21 11 15 0 20 5 17 22 -3 23 -27 35 -41 22z m33
-19 c0 -8 -7 -15 -15 -15 -8 0 -15 7 -15 15 0 8 7 15 15 15 8 0 15 -7 15 -15z"/>
<path d="M8031 3013 c1 -32 3 -51 5 -43 3 9 15 20 27 25 40 18 29 75 -14 75
-17 0 -19 -8 -18 -57z m43 32 c7 -18 -2 -45 -15 -45 -5 0 -12 7 -15 15 -7 18
2 45 15 45 5 0 11 -7 15 -15z"/>
<path d="M8111 3028 c2 -34 3 -37 6 -13 2 17 12 36 21 43 14 11 13 12 -6 12
-19 0 -22 -5 -21 -42z"/>
<path d="M8170 3051 c-18 -35 24 -85 44 -52 4 5 -3 7 -14 4 -11 -3 -20 0 -20
6 0 6 9 11 21 11 15 0 20 5 17 22 -4 30 -34 35 -48 9z m38 -9 c2 -7 -3 -12
-12 -12 -9 0 -16 7 -16 16 0 17 22 14 28 -4z"/>
<path d="M8244 3055 c-7 -18 3 -35 22 -35 8 0 14 -5 14 -11 0 -7 -9 -9 -21 -6
-16 4 -19 3 -11 -5 14 -14 42 -3 42 16 0 7 -9 16 -20 19 -27 7 -25 25 3 30
l22 4 -23 2 c-12 0 -25 -6 -28 -14z"/>
<path d="M8320 3051 c-18 -35 24 -85 44 -52 4 5 -3 7 -14 4 -11 -3 -20 0 -20
6 0 6 9 11 21 11 15 0 20 5 17 22 -4 30 -34 35 -48 9z m38 -9 c2 -7 -3 -12
-12 -12 -9 0 -16 7 -16 16 0 17 22 14 28 -4z"/>
<path d="M8390 3031 c0 -23 5 -41 10 -41 6 0 10 16 10 36 0 46 22 41 32 -7 6
-34 6 -34 5 6 -2 36 -5 40 -29 43 -27 3 -28 1 -28 -37z"/>
<path d="M8524 3056 c-11 -28 0 -61 20 -61 27 0 44 30 30 53 -15 22 -43 27
-50 8z m41 -26 c0 -27 -22 -39 -31 -16 -8 22 3 49 19 43 6 -2 12 -14 12 -27z"/>
<path d="M8640 3051 c-18 -35 24 -85 44 -52 4 5 -3 7 -14 4 -11 -3 -20 0 -20
6 0 6 9 11 21 11 15 0 20 5 17 22 -4 30 -34 35 -48 9z m38 -9 c2 -7 -3 -12
-12 -12 -9 0 -16 7 -16 16 0 17 22 14 28 -4z"/>
<path d="M8711 3028 c2 -43 2 -43 8 -8 4 22 12 35 21 35 9 0 18 -13 22 -35 l6
-35 -1 40 c-2 36 -5 40 -29 43 -27 3 -28 2 -27 -40z"/>
<path d="M8898 3060 c12 -5 22 -14 22 -19 0 -5 -10 -11 -22 -13 -33 -4 -29
-32 5 -36 23 -3 27 0 27 22 0 39 -10 56 -34 55 -21 0 -21 0 2 -9z m17 -50 c-3
-5 -13 -10 -21 -10 -8 0 -14 5 -14 10 0 6 9 10 21 10 11 0 17 -4 14 -10z"/>
<path d="M8980 3016 c0 -31 5 -56 10 -56 6 0 10 6 10 14 0 7 9 16 21 19 16 4
20 12 17 39 -2 28 -7 34 -30 36 -28 3 -28 2 -28 -52z m50 14 c0 -20 -5 -30
-15 -30 -10 0 -15 10 -15 30 0 20 5 30 15 30 10 0 15 -10 15 -30z"/>
<path d="M9070 3051 c-14 -27 4 -64 28 -59 12 2 17 13 17 38 0 41 -27 53 -45
21z m40 -21 c0 -32 -23 -42 -34 -15 -8 21 3 45 20 45 9 0 14 -11 14 -30z"/>
<path d="M9144 3055 c-7 -18 3 -35 22 -35 8 0 14 -5 14 -11 0 -6 -9 -9 -20 -6
-11 3 -18 1 -14 -4 9 -15 41 -10 48 6 4 11 -3 19 -19 25 -31 12 -31 18 -2 30
l22 9 -23 0 c-12 1 -25 -6 -28 -14z"/>
<path d="M9223 3030 c0 -25 2 -35 4 -22 2 12 2 32 0 45 -2 12 -4 2 -4 -23z"/>
<path d="M9262 3058 c-23 -23 -7 -68 25 -68 7 0 13 4 13 9 0 5 -8 8 -17 7 -13
-1 -18 6 -18 24 0 18 5 25 18 24 9 -1 17 2 17 7 0 13 -24 11 -38 -3z"/>
<path d="M9320 3030 c0 -22 5 -40 10 -40 6 0 10 18 10 40 0 22 -4 40 -10 40
-5 0 -10 -18 -10 -40z"/>
<path d="M9364 3056 c-11 -28 0 -61 20 -61 27 0 44 30 30 53 -15 22 -43 27
-50 8z m41 -26 c0 -27 -22 -39 -31 -16 -8 22 3 49 19 43 6 -2 12 -14 12 -27z"/>
<path d="M9441 3028 c2 -43 2 -43 8 -9 8 48 31 53 31 7 0 -20 5 -36 10 -36 14
0 12 54 -2 68 -7 7 -20 12 -30 12 -15 0 -18 -8 -17 -42z"/>
<path d="M9670 3016 c0 -31 5 -56 10 -56 6 0 10 6 10 14 0 7 9 16 21 19 16 4
20 12 17 39 -2 28 -7 34 -30 36 -28 3 -28 2 -28 -52z m50 14 c0 -20 -5 -30
-15 -30 -10 0 -15 10 -15 30 0 20 5 30 15 30 10 0 15 -10 15 -30z"/>
<path d="M9762 3058 c-24 -24 -6 -69 28 -67 9 0 5 5 -10 12 l-25 11 28 4 c15
2 27 9 27 16 0 12 -19 36 -30 36 -3 0 -11 -5 -18 -12z m36 -16 c2 -7 -6 -12
-17 -12 -21 0 -27 11 -14 24 9 9 26 2 31 -12z"/>
<path d="M9831 3028 c2 -42 2 -43 8 -9 4 21 14 37 26 42 17 7 16 8 -7 8 -26 1
-28 -1 -27 -41z"/>
<path d="M9894 3056 c-11 -28 0 -61 20 -61 27 0 44 30 30 53 -15 22 -43 27
-50 8z m41 -26 c0 -27 -22 -39 -31 -16 -8 22 3 49 19 43 6 -2 12 -14 12 -27z"/>
<path d="M10048 3045 c-9 -21 -9 -29 4 -42 25 -25 50 -9 46 29 -4 42 -33 50
-50 13z m37 -15 c0 -27 -20 -38 -28 -15 -8 20 3 47 17 42 6 -2 11 -14 11 -27z"/>
<path d="M9090 2861 c0 -22 3 -46 6 -55 12 -32 19 -15 16 39 -4 63 -22 76 -22
16z"/>
<path d="M9835 2890 c-3 -5 -2 -10 4 -10 5 0 12 -21 14 -47 3 -47 3 -47 5 10
2 52 -8 72 -23 47z"/>
<path d="M9987 2894 c-4 -4 -7 -12 -7 -18 0 -6 5 -4 10 4 7 12 12 12 21 3 10
-10 6 -21 -15 -53 l-26 -40 32 1 c24 1 27 3 10 6 l-22 4 21 30 c11 16 19 37
17 46 -3 19 -29 29 -41 17z"/>
<path d="M10206 2891 c-3 -5 3 -7 14 -4 15 4 20 0 20 -16 0 -11 -5 -21 -12
-21 -6 0 -4 -6 7 -13 22 -17 11 -41 -16 -34 -11 3 -17 1 -13 -4 3 -5 11 -9 18
-9 20 0 39 27 30 42 -4 7 -8 24 -8 38 -1 25 -29 40 -40 21z"/>
<path d="M7891 2828 l2 -43 6 35 c4 22 12 35 21 35 9 0 17 -13 21 -35 l6 -35
4 34 c6 47 27 51 32 7 l4 -36 -1 37 -1 38 -47 3 -48 2 1 -42z"/>
<path d="M8023 2830 c0 -25 2 -35 4 -22 2 12 2 32 0 45 -2 12 -4 2 -4 -23z"/>
<path d="M8058 2858 c-7 -19 2 -38 18 -38 8 0 14 -5 14 -11 0 -6 -9 -9 -20 -6
-11 3 -18 1 -14 -4 11 -18 44 -10 44 11 0 11 -6 20 -14 20 -26 0 -28 20 -4 29
22 9 22 10 2 10 -12 1 -24 -5 -26 -11z"/>
<path d="M8131 2827 c2 -42 2 -42 8 -8 8 48 31 53 31 7 0 -20 5 -36 11 -36 6
0 10 10 9 23 -4 38 0 49 13 45 6 -3 15 -20 19 -39 6 -34 6 -34 5 6 l-2 40 -47
2 -48 2 1 -42z"/>
<path d="M8254 2845 c-8 -34 1 -55 26 -55 25 0 34 21 26 55 -4 16 -13 25 -26
25 -13 0 -22 -9 -26 -25z m41 -15 c0 -27 -22 -39 -31 -16 -8 22 3 49 19 43 6
-2 12 -14 12 -27z"/>
<path d="M8375 2860 c-4 -6 -4 -14 -1 -17 3 -4 6 -1 6 5 0 7 7 12 15 12 10 0
15 -10 15 -30 0 -33 -25 -42 -34 -12 -4 13 -4 13 -3 -3 2 -13 10 -20 22 -20
16 0 20 7 20 35 0 35 -25 54 -40 30z"/>
<path d="M8450 2850 c-18 -34 24 -83 44 -51 4 5 -3 7 -14 4 -17 -5 -20 0 -20
27 0 27 3 32 20 27 11 -3 18 -1 14 4 -9 16 -33 10 -44 -11z"/>
<path d="M8524 2830 c1 -28 5 -36 24 -38 20 -3 22 0 20 40 l-1 43 -4 -37 c-5
-48 -30 -51 -36 -5 -4 32 -4 32 -3 -3z"/>
<path d="M8601 2828 c2 -34 3 -37 6 -13 2 17 12 36 21 43 14 11 13 12 -6 12
-19 0 -22 -5 -21 -42z"/>
<path d="M8661 2828 c2 -34 3 -37 6 -13 2 17 12 36 21 43 14 11 13 12 -6 12
-19 0 -22 -5 -21 -42z"/>
<path d="M8720 2851 c-18 -35 24 -85 44 -52 4 5 -3 7 -14 4 -11 -3 -20 0 -20
6 0 6 9 11 21 11 15 0 20 5 17 22 -4 30 -34 35 -48 9z m40 -6 c0 -8 -7 -15
-15 -15 -8 0 -15 7 -15 15 0 8 7 15 15 15 8 0 15 -7 15 -15z"/>
<path d="M8837 2863 c-4 -3 -7 -19 -7 -35 0 -31 24 -48 42 -30 7 7 4 10 -8 9
-14 -2 -19 5 -19 23 0 18 5 25 17 24 10 -1 15 2 12 7 -6 11 -28 12 -37 2z"/>
<path d="M8905 2860 c-4 -6 -4 -14 -1 -17 3 -4 6 -1 6 5 0 7 7 12 15 12 10 0
15 -10 15 -30 0 -33 -25 -42 -34 -12 -4 13 -4 13 -3 -3 2 -13 10 -20 22 -20
16 0 20 7 20 35 0 35 -25 54 -40 30z"/>
<path d="M8981 2828 c2 -42 2 -42 8 -9 9 49 29 51 34 4 l4 -38 -1 40 c-1 33
-5 41 -23 43 -21 3 -23 0 -22 -40z"/>
<path d="M9158 2863 c27 -6 29 -33 2 -33 -13 0 -20 -7 -20 -20 0 -15 7 -20 26
-20 23 0 25 3 22 38 -3 31 -7 37 -28 39 -22 1 -22 1 -2 -4z m22 -53 c0 -5 -7
-10 -15 -10 -8 0 -15 5 -15 10 0 6 7 10 15 10 8 0 15 -4 15 -10z"/>
<path d="M9251 2813 c1 -32 3 -50 6 -40 2 9 13 17 23 17 21 0 34 31 25 60 -4
13 -15 20 -31 20 -23 0 -24 -3 -23 -57z m44 17 c0 -27 -22 -39 -31 -16 -8 22
3 49 19 43 6 -2 12 -14 12 -27z"/>
<path d="M9334 2856 c-11 -28 0 -61 20 -61 27 0 44 30 30 53 -15 22 -43 27
-50 8z m41 -26 c0 -27 -22 -39 -31 -16 -8 22 3 49 19 43 6 -2 12 -14 12 -27z"/>
<path d="M9414 2855 c-7 -18 3 -35 22 -35 21 0 17 -18 -6 -23 -17 -4 -17 -4 2
-3 30 1 38 36 9 36 -25 0 -28 27 -3 33 16 4 16 5 -1 6 -10 0 -20 -6 -23 -14z"/>
<path d="M9483 2830 c0 -25 2 -35 4 -22 2 12 2 32 0 45 -2 12 -4 2 -4 -23z"/>
<path d="M9527 2863 c-4 -3 -7 -19 -7 -35 0 -31 24 -48 42 -30 8 8 5 9 -11 5
-18 -5 -21 -1 -21 27 0 27 3 32 20 27 11 -3 18 -1 14 4 -6 11 -28 12 -37 2z"/>
<path d="M9593 2830 c0 -25 2 -35 4 -22 2 12 2 32 0 45 -2 12 -4 2 -4 -23z"/>
<path d="M9630 2851 c-14 -27 4 -64 28 -59 12 2 17 13 17 38 0 41 -27 53 -45
21z m40 -21 c0 -32 -23 -42 -34 -15 -8 21 3 45 20 45 9 0 14 -11 14 -30z"/>
<path d="M9700 2831 c0 -23 5 -41 10 -41 6 0 10 16 10 36 0 46 22 41 32 -7 6
-34 6 -34 5 6 -2 36 -5 40 -29 43 -27 3 -28 1 -28 -37z"/>
<path d="M10091 2864 c-1 -6 4 -25 10 -43 9 -24 8 -35 -2 -48 -12 -14 -12 -16
0 -12 17 6 55 109 40 109 -5 0 -9 -9 -9 -19 0 -32 -17 -34 -28 -4 -6 16 -11
23 -11 17z"/>
<path d="M6940 2510 c0 -60 2 -70 18 -69 10 0 12 3 5 6 -8 3 -13 26 -13 63 0
37 5 60 13 63 7 3 5 6 -5 6 -16 1 -18 -9 -18 -69z"/>
<path d="M7085 2510 c0 -38 3 -70 8 -70 4 0 7 32 7 70 0 39 -3 70 -7 70 -5 0
-8 -31 -8 -70z"/>
<path d="M4975 2553 c-12 -22 -8 -103 6 -103 5 0 9 18 9 40 0 25 5 40 13 40 8
0 7 4 -3 10 -13 9 -13 11 0 20 13 9 13 10 0 10 -8 0 -20 -8 -25 -17z"/>
<path d="M5380 2510 c0 -33 4 -60 10 -60 6 0 10 9 10 20 0 11 4 20 9 20 5 0
13 -9 16 -20 3 -11 11 -20 16 -20 5 0 3 13 -6 29 -9 19 -11 32 -5 36 6 3 10
12 10 18 -1 7 -10 1 -20 -12 l-20 -23 0 36 c0 20 -4 36 -10 36 -6 0 -10 -27
-10 -60z"/>
<path d="M6258 2564 c-12 -11 -10 -114 2 -114 6 0 10 9 10 20 0 26 7 25 31 -2
l20 -23 -15 32 c-10 20 -12 34 -6 38 6 3 10 12 10 18 -1 7 -9 2 -20 -11 l-19
-23 -3 37 c-2 20 -6 32 -10 28z"/>
<path d="M6994 2557 c-3 -8 -4 -34 -2 -58 3 -39 6 -44 28 -44 24 0 25 3 25 55
0 49 -2 55 -23 58 -12 2 -24 -3 -28 -11z m41 -48 c0 -32 -4 -44 -15 -44 -16 0
-26 54 -16 82 12 30 31 6 31 -38z"/>
<path d="M4830 2495 c0 -25 5 -45 10 -45 6 0 10 20 10 45 0 25 -4 45 -10 45
-5 0 -10 -20 -10 -45z"/>
<path d="M4881 2491 l2 -46 6 40 c4 26 11 40 21 40 10 0 17 -14 21 -40 l7 -40
-2 45 c-1 42 -3 45 -28 46 -27 1 -28 -1 -27 -45z"/>
<path d="M5030 2526 c-15 -19 -9 -56 12 -69 34 -22 66 41 36 71 -16 16 -33 15
-48 -2z m45 -16 c4 -12 1 -28 -6 -36 -11 -13 -14 -13 -27 -1 -17 17 -8 57 13
57 8 0 17 -9 20 -20z"/>
<path d="M5201 2478 c1 -35 3 -55 6 -45 2 9 12 17 22 17 23 0 41 20 41 45 0
27 -18 45 -47 45 -22 0 -23 -4 -22 -62z m54 32 c6 -20 -9 -50 -25 -50 -12 0
-21 31 -15 51 8 25 32 24 40 -1z"/>
<path d="M5302 2528 c-25 -25 -8 -78 25 -78 22 0 36 40 24 66 -12 26 -30 31
-49 12z m33 -33 c0 -32 -19 -45 -29 -19 -9 22 3 56 17 51 7 -2 12 -16 12 -32z"/>
<path d="M5474 2527 c-3 -9 -4 -28 -2 -44 3 -30 32 -43 51 -24 9 9 5 11 -12 9
-13 -2 -26 3 -28 10 -3 7 5 12 22 12 22 0 26 4 23 23 -4 26 -45 37 -54 14z
m44 -15 c2 -7 -6 -12 -17 -12 -21 0 -27 11 -14 24 9 9 26 2 31 -12z"/>
<path d="M5561 2492 l1 -47 8 38 c4 20 10 40 13 43 13 13 27 -9 27 -42 0 -45
18 -44 22 1 2 20 8 35 13 35 6 0 11 -15 13 -35 4 -45 22 -46 22 -1 0 42 -13
52 -72 54 l-48 2 1 -48z"/>
<path d="M5711 2518 c-9 -24 -4 -55 10 -64 21 -12 49 8 49 35 0 49 -44 70 -59
29z m44 -24 c0 -19 -5 -29 -15 -29 -16 0 -25 28 -16 51 10 25 31 10 31 -22z"/>
<path d="M5801 2491 l2 -46 6 40 c4 26 11 40 21 40 10 0 17 -14 21 -40 l7 -40
-2 45 c-1 42 -3 45 -28 46 -27 1 -28 -1 -27 -45z"/>
<path d="M6071 2478 c1 -35 3 -55 6 -45 2 9 12 17 22 17 23 0 41 20 41 45 0
27 -18 45 -47 45 -22 0 -23 -4 -22 -62z m54 33 c7 -23 -3 -51 -20 -51 -7 0
-16 7 -19 16 -9 23 2 54 19 54 8 0 16 -8 20 -19z"/>
<path d="M6172 2528 c-25 -25 -8 -78 25 -78 22 0 36 40 24 66 -12 26 -30 31
-49 12z m33 -33 c0 -32 -19 -45 -29 -19 -9 22 3 56 17 51 7 -2 12 -16 12 -32z"/>
<path d="M6344 2527 c-3 -9 -4 -28 -2 -44 3 -30 32 -43 51 -24 9 9 5 11 -12 9
-13 -2 -26 3 -28 10 -3 7 5 12 22 12 22 0 26 4 23 23 -4 26 -45 37 -54 14z
m44 -15 c2 -7 -6 -12 -17 -12 -21 0 -27 11 -14 24 9 9 26 2 31 -12z"/>
<path d="M6431 2492 l1 -47 8 38 c4 20 10 40 13 43 13 13 27 -9 27 -42 0 -45
18 -44 22 1 2 20 8 35 13 35 6 0 11 -15 13 -35 4 -45 22 -46 22 -1 0 42 -13
52 -72 54 l-48 2 1 -48z"/>
<path d="M6581 2518 c-16 -45 13 -84 44 -58 20 17 19 66 -1 74 -26 10 -34 7
-43 -16z m44 -24 c0 -19 -5 -29 -15 -29 -16 0 -25 28 -16 51 10 25 31 10 31
-22z"/>
<path d="M6671 2493 l2 -48 6 40 c4 26 11 40 21 40 10 0 17 -14 21 -40 l7 -40
-2 45 c-1 41 -3 45 -28 48 -27 3 -28 2 -27 -45z"/>
<path d="M6770 2526 c-25 -31 13 -97 40 -70 8 8 4 10 -11 10 -12 -1 -24 5 -26
12 -3 8 6 12 26 12 34 0 36 2 21 31 -13 23 -33 25 -50 5z m40 -11 c0 -8 -9
-15 -20 -15 -20 0 -26 11 -13 23 12 13 33 7 33 -8z"/>
<path d="M6856 2524 c-9 -23 -8 -24 19 -34 35 -13 33 -34 -2 -25 -21 5 -25 4
-17 -5 16 -16 48 -8 52 13 2 11 -6 20 -23 27 -29 11 -24 35 6 27 11 -3 17 -1
13 4 -9 15 -41 10 -48 -7z"/>
<path d="M5953 2493 c39 -2 65 -8 62 -13 -10 -15 1 -12 15 5 11 13 3 15 -66
13 l-79 -2 68 -3z"/>
<path d="M5118 2433 c12 -2 32 -2 45 0 12 2 2 4 -23 4 -25 0 -35 -2 -22 -4z"/>
<path d="M4260 895 l0 -495 4030 0 4030 0 0 495 0 495 -4030 0 -4030 0 0 -495z
m2680 0 l0 -485 -1335 0 -1335 0 0 485 0 485 1335 0 1335 0 0 -485z m2680 0
l0 -485 -1335 0 -1335 0 0 485 0 485 1335 0 1335 0 0 -485z m2690 0 l0 -485
-1335 0 -1335 0 0 485 0 485 1335 0 1335 0 0 -485z"/>
<path d="M5332 1280 c1 -28 3 -34 5 -17 2 15 8 27 13 27 5 0 11 -12 13 -27 4
-26 4 -26 6 5 1 22 -4 32 -13 32 -8 0 -17 6 -19 13 -3 6 -5 -8 -5 -33z"/>
<path d="M5720 1283 c0 -38 2 -43 23 -42 16 1 18 2 5 6 -10 2 -18 13 -18 24 0
11 7 19 18 20 13 0 14 2 2 6 -8 3 -18 11 -22 17 -4 6 -8 -8 -8 -31z"/>
<path d="M5915 1310 c-3 -6 1 -7 9 -4 21 8 20 -10 0 -41 -16 -24 -15 -25 7
-25 18 0 21 2 10 9 -12 8 -12 12 -2 25 14 17 9 46 -8 46 -5 0 -13 -4 -16 -10z"/>
<path d="M5970 1311 c0 -6 7 -8 15 -5 11 5 15 -2 15 -26 0 -24 -4 -31 -15 -26
-8 3 -15 1 -15 -5 0 -6 8 -9 18 -7 12 2 17 13 17 38 0 25 -5 36 -17 38 -10 2
-18 -1 -18 -7z"/>
<path d="M6025 1275 c0 -25 3 -45 8 -45 4 0 7 20 7 45 0 25 -3 45 -7 45 -5 0
-8 -20 -8 -45z"/>
<path d="M5284 1285 c-8 -20 2 -45 18 -44 10 0 10 2 1 6 -7 2 -13 13 -13 23 0
10 6 21 13 23 9 4 9 6 -1 6 -7 1 -15 -6 -18 -14z"/>
<path d="M5403 1294 c21 -7 23 -24 2 -24 -8 0 -15 -7 -15 -15 0 -8 9 -15 21
-15 29 0 23 54 -6 57 -16 1 -16 1 -2 -3z"/>
<path d="M5441 1268 c2 -30 2 -30 6 -6 2 15 12 29 21 31 12 3 10 5 -5 6 -20 1
-23 -4 -22 -31z"/>
<path d="M5511 1278 c1 -17 3 -18 6 -5 7 26 31 21 36 -8 4 -23 4 -23 3 2 -1
21 -7 29 -23 31 -19 3 -23 -1 -22 -20z"/>
<path d="M5573 1285 c-3 -9 -3 -19 1 -22 3 -4 6 1 6 10 0 8 8 18 18 20 16 4
16 5 -1 6 -10 0 -20 -6 -24 -14z"/>
<path d="M5631 1268 c2 -31 2 -31 6 -5 2 15 8 27 13 27 5 0 11 -12 13 -27 l4
-28 2 27 c0 16 8 28 19 31 9 3 0 5 -20 6 -37 1 -38 0 -37 -31z"/>
<path d="M5781 1268 c2 -28 2 -29 6 -8 3 14 10 28 17 32 7 5 5 8 -6 8 -14 0
-18 -8 -17 -32z"/>
<path d="M5824 1286 c-9 -23 3 -46 23 -45 16 0 16 1 -2 9 -18 8 -18 9 -2 9 12
1 17 7 15 18 -4 22 -27 28 -34 9z m26 -6 c0 -5 -4 -10 -10 -10 -5 0 -10 5 -10
10 0 6 5 10 10 10 6 0 10 -4 10 -10z"/>
<path d="M5588 1243 c7 -3 16 -2 19 1 4 3 -2 6 -13 5 -11 0 -14 -3 -6 -6z"/>
<path d="M4643 933 c9 -2 25 -2 35 0 9 3 1 5 -18 5 -19 0 -27 -2 -17 -5z"/>
<path d="M4721 898 c1 -24 3 -35 6 -25 2 9 13 17 23 17 19 0 34 25 24 41 -3 5
-16 9 -30 9 -22 0 -24 -4 -23 -42z m42 17 c1 -5 -6 -11 -15 -13 -11 -2 -18 3
-18 13 0 17 30 18 33 0z"/>
<path d="M4794 926 c-11 -28 0 -61 21 -61 16 0 20 7 20 35 0 25 -5 36 -18 38
-9 2 -20 -3 -23 -12z m36 -26 c0 -20 -5 -30 -15 -30 -10 0 -15 10 -15 30 0 20
5 30 15 30 10 0 15 -10 15 -30z"/>
<path d="M5222 900 c-1 -33 1 -41 8 -30 8 12 12 13 19 2 5 -9 8 -4 7 16 -1 22
-4 28 -13 21 -8 -7 -13 -3 -16 13 -2 13 -5 3 -5 -22z"/>
<path d="M6128 929 c-6 -17 3 -69 11 -69 7 0 6 69 -2 76 -3 3 -7 0 -9 -7z"/>
<path d="M4880 902 c0 -17 3 -33 8 -35 9 -6 8 50 -1 60 -4 3 -7 -8 -7 -25z"/>
<path d="M4355 911 c-3 -7 0 -8 9 -5 9 3 16 1 16 -5 0 -6 -7 -11 -15 -11 -8 0
-15 -7 -15 -15 0 -8 8 -15 18 -15 14 0 15 2 2 10 -13 8 -12 10 3 10 12 0 17 6
15 17 -4 20 -24 28 -33 14z"/>
<path d="M4401 888 c2 -30 2 -31 6 -5 5 34 30 36 36 2 4 -23 4 -23 3 2 -1 21
-7 29 -23 31 -20 3 -23 -1 -22 -30z"/>
<path d="M4464 890 c1 -15 8 -26 19 -28 14 -3 17 3 16 30 -2 30 -2 31 -6 6 -5
-34 -20 -37 -26 -5 -3 19 -4 19 -3 -3z"/>
<path d="M4521 888 c2 -30 2 -31 6 -5 2 15 8 27 13 27 5 0 11 -12 13 -27 l4
-28 2 28 c1 34 28 36 34 2 4 -23 4 -23 3 2 -1 25 -5 28 -38 31 -37 3 -38 2
-37 -30z"/>
<path d="M4947 914 c-4 -4 -7 -23 -7 -43 0 -20 4 -31 8 -25 4 6 15 13 25 17
12 5 17 15 15 29 -3 23 -27 35 -41 22z m33 -24 c0 -21 -15 -27 -25 -10 -7 12
2 30 16 30 5 0 9 -9 9 -20z"/>
<path d="M5004 906 c-8 -22 3 -49 19 -43 6 2 12 14 12 27 0 27 -22 39 -31 16z
m26 -16 c0 -11 -4 -20 -10 -20 -5 0 -10 9 -10 20 0 11 5 20 10 20 6 0 10 -9
10 -20z"/>
<path d="M5111 878 c0 -24 3 -37 6 -30 2 6 11 12 19 12 8 0 14 4 14 10 0 5 -7
7 -15 4 -11 -4 -15 0 -15 16 0 16 4 20 15 16 8 -3 15 -1 15 4 0 6 -9 10 -20
10 -17 0 -20 -6 -19 -42z"/>
<path d="M5178 913 c7 -3 16 -2 19 1 4 3 -2 6 -13 5 -11 0 -14 -3 -6 -6z"/>
<path d="M5274 905 c-9 -22 3 -45 23 -44 16 0 16 1 -2 9 -19 8 -19 9 3 9 12 1
22 5 22 10 0 5 -9 7 -20 4 -11 -3 -20 -1 -20 5 0 6 8 13 18 15 16 4 16 5 -1 6
-10 0 -20 -6 -23 -14z"/>
<path d="M5331 888 c2 -30 2 -31 6 -5 2 15 8 27 13 27 5 0 11 -12 13 -27 l4
-28 2 28 c1 34 28 36 34 2 4 -23 4 -23 3 2 -1 25 -5 28 -38 31 -37 3 -38 2
-37 -30z"/>
<path d="M5424 905 c-9 -23 3 -45 23 -44 17 1 17 2 1 6 -10 2 -18 13 -18 23 0
10 8 21 18 23 16 4 16 5 -1 6 -10 0 -20 -6 -23 -14z"/>
<path d="M5481 888 c2 -31 2 -31 6 -5 2 15 8 27 13 27 5 0 11 -12 13 -27 4
-26 4 -26 6 5 1 26 -3 32 -19 32 -16 0 -20 -6 -19 -32z"/>
<path d="M6032 890 c0 -19 2 -27 5 -17 2 9 2 25 0 35 -3 9 -5 1 -5 -18z"/>
<path d="M6061 888 c2 -30 2 -31 6 -5 5 34 30 36 36 2 4 -23 4 -23 3 2 -1 21
-7 29 -23 31 -20 3 -23 -1 -22 -30z"/>
<path d="M6201 878 c0 -24 3 -37 6 -30 2 6 11 12 19 12 8 0 14 4 14 10 0 5 -7
7 -15 4 -11 -4 -15 0 -15 16 0 16 4 20 15 16 8 -3 15 -1 15 4 0 6 -9 10 -20
10 -17 0 -20 -6 -19 -42z"/>
<path d="M6264 906 c-9 -24 4 -48 23 -44 12 2 18 12 18 28 0 29 -32 41 -41 16z
m36 -16 c0 -11 -7 -20 -15 -20 -8 0 -15 9 -15 20 0 11 7 20 15 20 8 0 15 -9
15 -20z"/>
<path d="M6334 905 c-4 -8 -4 -22 0 -30 6 -16 36 -21 36 -5 0 5 -7 7 -15 4
-11 -4 -15 0 -15 16 0 16 4 20 15 16 8 -3 15 -1 15 4 0 16 -30 11 -36 -5z"/>
<path d="M6400 911 c0 -6 7 -8 15 -5 8 4 15 1 15 -4 0 -6 -10 -13 -22 -15 -19
-4 -18 -5 5 -6 22 -1 28 3 25 16 -3 19 -38 31 -38 14z"/>
<path d="M6461 888 c2 -28 2 -29 6 -8 3 14 10 28 17 32 7 5 5 8 -6 8 -14 0
-18 -8 -17 -32z"/>
<path d="M5178 863 c7 -3 16 -2 19 1 4 3 -2 6 -13 5 -11 0 -14 -3 -6 -6z"/>
<path d="M6408 863 c7 -3 16 -2 19 1 4 3 -2 6 -13 5 -11 0 -14 -3 -6 -6z"/>
<path d="M8022 1280 c1 -28 3 -34 5 -17 2 15 8 27 13 27 5 0 11 -12 13 -27 4
-26 4 -26 6 5 1 22 -4 32 -13 32 -8 0 -17 6 -19 13 -3 6 -5 -8 -5 -33z"/>
<path d="M8410 1283 c0 -38 2 -43 23 -42 16 1 18 2 5 6 -10 2 -18 13 -18 24 0
11 7 19 18 20 13 0 14 2 2 6 -8 3 -18 11 -22 17 -4 6 -8 -8 -8 -31z"/>
<path d="M8605 1310 c-3 -6 1 -7 9 -4 21 8 20 -10 0 -41 -16 -24 -15 -25 7
-25 18 0 21 2 10 9 -12 8 -12 12 -2 25 14 17 9 46 -8 46 -5 0 -13 -4 -16 -10z"/>
<path d="M8660 1311 c0 -6 7 -8 15 -5 11 5 15 -2 15 -26 0 -24 -4 -31 -15 -26
-8 3 -15 1 -15 -5 0 -6 8 -9 18 -7 12 2 17 13 17 38 0 25 -5 36 -17 38 -10 2
-18 -1 -18 -7z"/>
<path d="M8715 1275 c0 -25 3 -45 8 -45 4 0 7 20 7 45 0 25 -3 45 -7 45 -5 0
-8 -20 -8 -45z"/>
<path d="M7975 1290 c-3 -6 1 -7 9 -4 18 7 21 14 7 14 -6 0 -13 -4 -16 -10z"/>
<path d="M8093 1294 c21 -7 23 -24 2 -24 -8 0 -15 -7 -15 -15 0 -8 9 -15 21
-15 29 0 23 54 -6 57 -16 1 -16 1 -2 -3z"/>
<path d="M8131 1268 c2 -30 2 -30 6 -6 2 15 12 29 21 31 12 3 10 5 -5 6 -20 1
-23 -4 -22 -31z"/>
<path d="M8201 1268 c2 -30 2 -31 6 -5 5 34 30 36 36 2 4 -23 4 -23 3 2 -1 21
-7 29 -23 31 -20 3 -23 -1 -22 -30z"/>
<path d="M8264 1285 c-9 -23 3 -45 23 -44 17 1 17 2 1 6 -10 2 -18 13 -18 23
0 10 8 21 18 23 16 4 16 5 -1 6 -10 0 -20 -6 -23 -14z"/>
<path d="M8321 1268 c2 -31 2 -31 6 -5 2 15 8 27 13 27 5 0 11 -12 13 -27 l4
-28 2 29 c1 21 5 27 16 22 8 -3 15 -1 15 4 0 6 -16 10 -35 10 -33 0 -35 -2
-34 -32z"/>
<path d="M8471 1268 c2 -28 2 -29 6 -8 3 14 10 28 17 32 7 5 5 8 -6 8 -14 0
-18 -8 -17 -32z"/>
<path d="M8514 1286 c-9 -23 3 -46 23 -45 16 0 16 1 -2 9 -18 8 -18 9 -2 9 12
1 17 7 15 18 -4 22 -27 28 -34 9z m26 -6 c0 -5 -4 -10 -10 -10 -5 0 -10 5 -10
10 0 6 5 10 10 10 6 0 10 -4 10 -10z"/>
<path d="M7970 1261 c0 -10 19 -25 25 -20 1 2 -3 10 -11 17 -8 7 -14 8 -14 3z"/>
<path d="M7310 936 c0 -9 39 -13 51 -5 10 6 4 9 -18 9 -18 0 -33 -2 -33 -4z"/>
<path d="M7401 898 c1 -24 3 -35 6 -26 2 9 14 19 26 21 l22 4 -22 2 c-13 0
-23 8 -23 16 0 18 21 20 39 3 10 -11 11 -10 6 5 -4 9 -17 17 -31 17 -22 0 -24
-4 -23 -42z"/>
<path d="M7474 926 c-11 -28 0 -61 21 -61 16 0 20 7 20 35 0 25 -5 36 -18 38
-9 2 -20 -3 -23 -12z m36 -26 c0 -20 -5 -30 -15 -30 -10 0 -15 10 -15 30 0 20
5 30 15 30 10 0 15 -10 15 -30z"/>
<path d="M7902 900 c-1 -33 1 -41 8 -30 8 12 12 13 19 2 5 -9 8 -4 7 16 -1 22
-4 28 -13 21 -8 -7 -13 -3 -16 13 -2 13 -5 3 -5 -22z"/>
<path d="M8808 929 c-6 -17 3 -69 11 -69 7 0 6 69 -2 76 -3 3 -7 0 -9 -7z"/>
<path d="M7560 902 c0 -17 3 -33 8 -35 9 -6 8 50 -1 60 -4 3 -7 -8 -7 -25z"/>
<path d="M7035 911 c-3 -7 0 -8 9 -5 9 3 16 1 16 -5 0 -6 -7 -11 -16 -11 -19
0 -14 -22 7 -28 11 -3 11 -2 -1 7 -13 9 -12 11 3 11 12 0 17 6 15 17 -4 20
-24 28 -33 14z"/>
<path d="M7081 888 c2 -30 2 -31 6 -5 5 34 30 36 36 2 4 -23 4 -23 3 2 -1 21
-7 29 -23 31 -20 3 -23 -1 -22 -30z"/>
<path d="M7144 890 c1 -15 8 -26 19 -28 14 -3 17 3 16 30 -2 30 -2 31 -6 6 -5
-34 -20 -37 -26 -5 -3 19 -4 19 -3 -3z"/>
<path d="M7201 888 c2 -30 2 -31 6 -5 2 15 8 27 13 27 5 0 11 -12 13 -27 l4
-28 2 28 c1 34 28 36 34 2 4 -23 4 -23 3 2 -1 25 -5 28 -38 31 -37 3 -38 2
-37 -30z"/>
<path d="M7620 878 c0 -24 4 -38 8 -32 4 6 15 13 25 17 26 10 18 51 -10 55
-21 3 -23 -1 -23 -40z m40 12 c0 -11 -7 -20 -15 -20 -15 0 -21 21 -8 33 12 13
23 7 23 -13z"/>
<path d="M7684 906 c-8 -22 3 -49 19 -43 6 2 12 14 12 27 0 27 -22 39 -31 16z
m26 -16 c0 -11 -4 -20 -10 -20 -5 0 -10 9 -10 20 0 11 5 20 10 20 6 0 10 -9
10 -20z"/>
<path d="M7791 878 c0 -24 3 -37 6 -30 2 6 11 12 19 12 8 0 14 4 14 10 0 5 -7
7 -15 4 -11 -4 -15 0 -15 16 0 16 4 20 15 16 8 -3 15 -1 15 4 0 6 -9 10 -20
10 -17 0 -20 -6 -19 -42z"/>
<path d="M7858 913 c7 -3 16 -2 19 1 4 3 -2 6 -13 5 -11 0 -14 -3 -6 -6z"/>
<path d="M7968 913 c7 -3 16 -2 19 1 4 3 -2 6 -13 5 -11 0 -14 -3 -6 -6z"/>
<path d="M8011 888 c2 -30 2 -31 6 -5 2 15 8 27 13 27 5 0 11 -12 13 -27 l4
-28 2 28 c1 34 28 36 34 2 4 -23 4 -23 3 2 -1 25 -5 28 -38 31 -37 3 -38 2
-37 -30z"/>
<path d="M8104 905 c-9 -23 3 -45 23 -44 17 1 17 2 1 6 -10 2 -18 13 -18 23 0
10 8 21 18 23 16 4 16 5 -1 6 -10 0 -20 -6 -23 -14z"/>
<path d="M8161 888 c2 -31 2 -31 6 -5 2 15 8 27 13 27 5 0 11 -12 13 -27 4
-26 4 -26 6 5 1 26 -3 32 -19 32 -16 0 -20 -6 -19 -32z"/>
<path d="M8712 890 c0 -19 2 -27 5 -17 2 9 2 25 0 35 -3 9 -5 1 -5 -18z"/>
<path d="M8741 888 c2 -30 2 -31 6 -5 5 34 30 36 36 2 4 -23 4 -23 3 2 -1 21
-7 29 -23 31 -20 3 -23 -1 -22 -30z"/>
<path d="M8881 878 c0 -24 3 -37 6 -30 2 6 11 12 19 12 8 0 14 4 14 10 0 5 -7
7 -15 4 -11 -4 -15 0 -15 16 0 16 4 20 15 16 8 -3 15 -1 15 4 0 6 -9 10 -20
10 -17 0 -20 -6 -19 -42z"/>
<path d="M8963 914 c20 -6 23 -44 3 -44 -8 0 -17 8 -20 18 -4 13 -4 13 -3 -3
2 -13 10 -20 22 -20 28 0 28 49 0 52 -16 1 -16 1 -2 -3z"/>
<path d="M9014 905 c-4 -8 -4 -22 0 -30 6 -16 36 -21 36 -5 0 5 -7 7 -15 4
-11 -4 -15 0 -15 16 0 16 4 20 15 16 8 -3 15 -1 15 4 0 16 -30 11 -36 -5z"/>
<path d="M9080 911 c0 -6 7 -8 15 -5 8 4 15 1 15 -4 0 -6 -10 -13 -22 -15 -19
-4 -18 -5 5 -6 22 -1 28 3 25 16 -3 19 -38 31 -38 14z"/>
<path d="M9141 888 c2 -28 2 -29 6 -8 3 14 10 28 17 32 7 5 5 8 -6 8 -14 0
-18 -8 -17 -32z"/>
<path d="M7601 894 c0 -11 3 -14 6 -6 3 7 2 16 -1 19 -3 4 -6 -2 -5 -13z"/>
<path d="M7952 880 c2 -8 12 -16 23 -17 20 -3 20 -3 0 6 -19 9 -19 10 3 10 31
1 28 16 -3 16 -17 0 -25 -5 -23 -15z"/>
<path d="M7858 863 c7 -3 16 -2 19 1 4 3 -2 6 -13 5 -11 0 -14 -3 -6 -6z"/>
<path d="M9088 863 c7 -3 16 -2 19 1 4 3 -2 6 -13 5 -11 0 -14 -3 -6 -6z"/>
<path d="M10712 1280 c1 -28 3 -34 5 -17 2 15 8 27 13 27 5 0 11 -12 13 -27 4
-26 4 -26 6 5 1 22 -4 32 -13 32 -8 0 -17 6 -19 13 -3 6 -5 -8 -5 -33z"/>
<path d="M11100 1283 c0 -38 2 -43 23 -42 16 1 18 2 5 6 -10 2 -18 13 -18 24
0 11 7 19 18 20 13 0 14 2 2 6 -8 3 -18 11 -22 17 -4 6 -8 -8 -8 -31z"/>
<path d="M11295 1310 c-3 -6 1 -7 9 -4 21 8 20 -10 0 -41 -16 -24 -15 -25 7
-25 18 0 21 2 10 9 -12 8 -12 12 -2 25 14 17 9 46 -8 46 -5 0 -13 -4 -16 -10z"/>
<path d="M11350 1311 c0 -6 7 -8 15 -5 11 5 15 -2 15 -26 0 -24 -4 -31 -15
-26 -8 3 -15 1 -15 -5 0 -6 8 -9 18 -7 12 2 17 13 17 38 0 25 -5 36 -17 38
-10 2 -18 -1 -18 -7z"/>
<path d="M11405 1275 c0 -25 3 -45 8 -45 4 0 7 20 7 45 0 25 -3 45 -7 45 -5 0
-8 -20 -8 -45z"/>
<path d="M10665 1290 c-3 -6 1 -7 9 -4 18 7 21 14 7 14 -6 0 -13 -4 -16 -10z"/>
<path d="M10783 1294 c21 -7 23 -24 2 -24 -8 0 -15 -7 -15 -15 0 -8 9 -15 21
-15 29 0 23 54 -6 57 -16 1 -16 1 -2 -3z"/>
<path d="M10821 1268 c2 -30 2 -30 6 -6 2 15 12 29 21 31 12 3 10 5 -5 6 -20
1 -23 -4 -22 -31z"/>
<path d="M10891 1268 c2 -30 2 -31 6 -5 5 34 30 36 36 2 4 -23 4 -23 3 2 -1
21 -7 29 -23 31 -20 3 -23 -1 -22 -30z"/>
<path d="M10954 1285 c-9 -23 3 -45 23 -44 17 1 17 2 1 6 -10 2 -18 13 -18 23
0 10 8 21 18 23 16 4 16 5 -1 6 -10 0 -20 -6 -23 -14z"/>
<path d="M11011 1268 c2 -31 2 -31 6 -5 2 15 8 27 13 27 5 0 11 -12 13 -27 l4
-28 2 29 c1 21 5 27 16 22 8 -3 15 -1 15 4 0 6 -16 10 -35 10 -33 0 -35 -2
-34 -32z"/>
<path d="M11161 1268 c2 -28 2 -29 6 -8 3 14 10 28 17 32 7 5 5 8 -6 8 -14 0
-18 -8 -17 -32z"/>
<path d="M11204 1286 c-8 -21 2 -46 18 -46 9 0 8 3 -2 10 -13 8 -12 10 3 10
12 0 17 6 15 17 -4 22 -27 28 -34 9z m26 -6 c0 -5 -4 -10 -10 -10 -5 0 -10 5
-10 10 0 6 5 10 10 10 6 0 10 -4 10 -10z"/>
<path d="M10660 1261 c0 -10 19 -25 25 -20 1 2 -3 10 -11 17 -8 7 -14 8 -14 3z"/>
<path d="M10023 933 c9 -2 25 -2 35 0 9 3 1 5 -18 5 -19 0 -27 -2 -17 -5z"/>
<path d="M10101 898 c1 -24 3 -35 6 -25 2 9 13 17 23 17 10 0 20 6 22 13 9 22
-3 37 -28 37 -22 0 -24 -4 -23 -42z m42 17 c1 -5 -6 -11 -15 -13 -11 -2 -18 3
-18 13 0 17 30 18 33 0z"/>
<path d="M10174 926 c-11 -28 0 -61 21 -61 16 0 20 7 20 35 0 25 -5 36 -18 38
-9 2 -20 -3 -23 -12z m36 -26 c0 -20 -5 -30 -15 -30 -10 0 -15 10 -15 30 0 20
5 30 15 30 10 0 15 -10 15 -30z"/>
<path d="M10602 900 c-1 -33 1 -41 8 -30 8 12 12 13 19 2 5 -9 8 -4 7 16 -1
22 -4 28 -13 21 -8 -7 -13 -3 -16 13 -2 13 -5 3 -5 -22z"/>
<path d="M11498 929 c-6 -17 3 -69 11 -69 7 0 6 69 -2 76 -3 3 -7 0 -9 -7z"/>
<path d="M10260 902 c0 -17 3 -33 8 -35 9 -6 8 50 -1 60 -4 3 -7 -8 -7 -25z"/>
<path d="M9737 914 c-15 -15 -7 -54 11 -54 14 0 15 2 2 10 -13 8 -12 10 3 10
12 0 17 6 15 17 -3 18 -20 27 -31 17z m23 -14 c0 -5 -4 -10 -10 -10 -5 0 -10
5 -10 10 0 6 5 10 10 10 6 0 10 -4 10 -10z"/>
<path d="M9781 888 c2 -30 2 -31 6 -5 5 34 30 36 36 2 4 -23 4 -23 3 2 -1 21
-7 29 -23 31 -20 3 -23 -1 -22 -30z"/>
<path d="M9844 890 c1 -15 8 -26 19 -28 14 -3 17 3 16 30 -2 30 -2 31 -6 6 -5
-34 -20 -37 -26 -5 -3 19 -4 19 -3 -3z"/>
<path d="M9901 888 c2 -30 2 -31 6 -5 2 15 8 27 13 27 5 0 11 -12 13 -27 l4
-28 2 28 c1 34 28 36 34 2 4 -23 4 -23 3 2 -1 25 -5 28 -38 31 -37 3 -38 2
-37 -30z"/>
<path d="M10320 878 c0 -24 4 -38 8 -32 4 6 15 13 25 17 26 10 18 51 -10 55
-21 3 -23 -1 -23 -40z m40 12 c0 -11 -4 -20 -9 -20 -14 0 -23 18 -16 30 10 17
25 11 25 -10z"/>
<path d="M10384 906 c-8 -22 3 -49 19 -43 6 2 12 14 12 27 0 27 -22 39 -31 16z
m26 -16 c0 -11 -4 -20 -10 -20 -5 0 -10 9 -10 20 0 11 5 20 10 20 6 0 10 -9
10 -20z"/>
<path d="M10491 878 c0 -24 3 -37 6 -30 2 6 11 12 19 12 8 0 14 4 14 10 0 5
-7 7 -15 4 -11 -4 -15 0 -15 16 0 16 4 20 15 16 8 -3 15 -1 15 4 0 6 -9 10
-20 10 -17 0 -20 -6 -19 -42z"/>
<path d="M10562 914 c9 -3 19 -13 22 -22 3 -12 4 -12 3 3 -1 12 -10 21 -22 22
-15 1 -15 0 -3 -3z"/>
<path d="M10668 913 c7 -3 16 -2 19 1 4 3 -2 6 -13 5 -11 0 -14 -3 -6 -6z"/>
<path d="M10711 888 c2 -30 2 -31 6 -5 2 15 8 27 13 27 5 0 11 -12 13 -27 l4
-28 2 28 c1 34 28 36 34 2 4 -23 4 -23 3 2 -1 25 -5 28 -38 31 -37 3 -38 2
-37 -30z"/>
<path d="M10804 905 c-9 -23 3 -45 23 -44 17 1 17 2 1 6 -10 2 -18 14 -18 25
0 14 5 18 15 14 8 -3 15 -1 15 4 0 16 -30 11 -36 -5z"/>
<path d="M10861 888 c2 -31 2 -31 6 -5 2 15 8 27 13 27 5 0 11 -12 13 -27 4
-26 4 -26 6 5 1 26 -3 32 -19 32 -16 0 -20 -6 -19 -32z"/>
<path d="M11402 890 c0 -19 2 -27 5 -17 2 9 2 25 0 35 -3 9 -5 1 -5 -18z"/>
<path d="M11431 888 c2 -30 2 -31 6 -5 5 34 30 36 36 2 4 -23 4 -23 3 2 -1 21
-7 29 -23 31 -20 3 -23 -1 -22 -30z"/>
<path d="M11571 878 c0 -24 3 -37 6 -30 2 6 11 12 19 12 8 0 14 4 14 10 0 5
-7 7 -15 4 -11 -4 -15 0 -15 16 0 16 4 20 15 16 8 -3 15 -1 15 4 0 6 -9 10
-20 10 -17 0 -20 -6 -19 -42z"/>
<path d="M11653 914 c9 -3 17 -14 17 -24 0 -10 -8 -21 -17 -24 -14 -4 -14 -4
2 -3 14 2 20 10 20 27 0 17 -6 25 -20 27 -16 1 -16 1 -2 -3z"/>
<path d="M11704 905 c-9 -23 3 -45 26 -45 12 0 19 4 15 10 -3 5 -12 7 -20 3
-11 -3 -15 2 -15 17 0 16 4 20 15 16 8 -3 15 -1 15 4 0 16 -30 11 -36 -5z"/>
<path d="M11766 905 c-9 -24 -8 -25 20 -25 19 0 25 5 22 17 -4 23 -34 28 -42
8z m34 -5 c0 -5 -7 -10 -16 -10 -8 0 -12 5 -9 10 3 6 10 10 16 10 5 0 9 -4 9
-10z"/>
<path d="M11831 888 c2 -28 2 -29 6 -8 3 14 10 28 17 32 7 5 5 8 -6 8 -14 0
-18 -8 -17 -32z"/>
<path d="M10652 880 c2 -8 12 -16 23 -17 20 -3 20 -3 0 6 -16 8 -17 10 -3 10
27 1 29 16 2 16 -16 0 -24 -5 -22 -15z"/>
<path d="M10558 863 c7 -3 16 -2 19 1 4 3 -2 6 -13 5 -11 0 -14 -3 -6 -6z"/>
<path d="M11778 863 c7 -3 16 -2 19 1 4 3 -2 6 -13 5 -11 0 -14 -3 -6 -6z"/>
<path d="M8660 220 c0 -60 2 -70 18 -69 10 0 12 3 5 6 -8 3 -13 26 -13 63 0
37 5 60 13 63 7 3 5 6 -5 6 -16 1 -18 -9 -18 -69z"/>
<path d="M8805 220 c0 -38 3 -70 8 -70 4 0 7 32 7 70 0 39 -3 70 -7 70 -5 0
-8 -31 -8 -70z"/>
<path d="M9630 220 c0 -38 3 -70 8 -70 4 0 7 32 7 70 0 39 -3 70 -7 70 -5 0
-8 -31 -8 -70z"/>
<path d="M10798 278 c16 -16 16 -115 0 -121 -8 -3 -6 -6 5 -6 15 -1 17 9 17
69 0 59 -3 70 -17 70 -13 0 -14 -3 -5 -12z"/>
<path d="M6695 263 c-12 -22 -8 -103 6 -103 5 0 9 18 9 40 0 25 5 40 13 40 8
0 7 4 -3 10 -13 9 -13 11 0 20 13 9 13 10 0 10 -8 0 -20 -8 -25 -17z"/>
<path d="M7100 220 c0 -33 4 -60 10 -60 6 0 10 9 10 20 0 26 7 25 31 -2 l20
-23 -15 32 c-10 20 -12 34 -6 38 6 3 10 11 10 17 0 6 -9 3 -20 -7 -20 -18 -20
-17 -20 13 0 18 -4 32 -10 32 -6 0 -10 -27 -10 -60z"/>
<path d="M7970 220 c0 -33 4 -60 10 -60 6 0 10 9 10 20 0 26 7 25 31 -2 l20
-23 -15 30 c-11 23 -12 36 -4 50 11 20 11 20 -10 1 -22 -19 -22 -19 -22 12 0
18 -4 32 -10 32 -6 0 -10 -27 -10 -60z"/>
<path d="M8714 267 c-3 -8 -4 -34 -2 -58 3 -39 6 -44 28 -44 24 0 25 3 25 55
0 49 -2 55 -23 58 -12 2 -24 -3 -28 -11z m41 -48 c0 -32 -4 -44 -15 -44 -16 0
-26 54 -16 82 12 30 31 6 31 -38z"/>
<path d="M9681 218 c2 -56 3 -59 8 -23 l7 40 14 -27 c16 -35 26 -35 34 -3 9
37 24 30 29 -12 2 -26 4 -17 5 25 2 69 -10 81 -28 27 -14 -43 -24 -44 -40 -5
-21 51 -30 44 -29 -22z"/>
<path d="M9822 220 c-12 -33 -16 -60 -11 -60 5 0 9 7 9 15 0 21 47 19 59 -2 6
-10 11 -13 11 -7 0 17 -31 104 -40 109 -4 3 -17 -22 -28 -55z m41 0 c4 -15 0
-20 -15 -20 -14 0 -18 5 -14 16 3 9 6 20 6 25 0 17 17 1 23 -21z"/>
<path d="M9925 249 c15 -28 15 -33 0 -56 -9 -13 -14 -27 -12 -30 3 -2 10 5 17
16 14 26 27 27 35 1 3 -11 10 -20 16 -20 5 0 1 15 -8 34 -15 32 -15 37 1 60
20 32 11 34 -14 4 l-17 -22 -7 22 c-4 12 -12 22 -17 22 -5 0 -2 -14 6 -31z"/>
<path d="M10124 264 c-3 -10 -12 -36 -20 -58 -8 -21 -13 -41 -10 -44 3 -3 8 3
12 12 8 21 50 21 58 0 4 -9 9 -15 11 -12 6 6 -24 99 -36 112 -5 5 -11 1 -15
-10z m26 -51 c0 -7 -7 -13 -15 -13 -16 0 -19 9 -9 35 5 13 8 14 15 3 5 -7 9
-19 9 -25z"/>
<path d="M10195 271 c15 -6 21 -20 26 -62 l6 -54 1 57 c2 45 6 57 20 61 9 3
-3 5 -28 5 -31 0 -39 -2 -25 -7z"/>
<path d="M10287 227 c-19 -60 -21 -80 -6 -54 12 21 48 23 55 2 4 -8 10 -15 14
-15 5 0 0 27 -12 60 -11 33 -23 60 -27 60 -4 0 -15 -24 -24 -53z m37 -3 c9
-23 8 -24 -13 -24 -14 0 -18 5 -14 20 6 24 19 26 27 4z"/>
<path d="M10386 264 c-18 -17 -21 -61 -7 -83 5 -8 25 -16 43 -17 l34 -3 -1 44
c-3 67 -34 94 -69 59z m38 0 c10 -4 16 -18 16 -41 0 -20 -4 -32 -10 -28 -5 3
-10 -1 -10 -10 0 -9 -6 -15 -12 -13 -14 5 -23 61 -14 84 6 16 8 16 30 8z"/>
<path d="M10480 248 c0 -69 20 -96 61 -83 16 5 19 16 17 63 l-2 57 -3 -52 c-3
-34 -9 -53 -19 -57 -26 -10 -34 3 -34 55 0 27 -4 49 -10 49 -5 0 -10 -15 -10
-32z"/>
<path d="M10600 220 l0 -60 38 2 c36 1 36 1 5 5 -43 6 -47 40 -5 46 l27 4 -27
2 c-23 1 -28 6 -28 25 0 20 6 25 33 29 31 4 31 4 -5 5 l-38 2 0 -60z"/>
<path d="M10702 268 c-21 -21 -13 -37 23 -52 19 -8 35 -19 35 -24 0 -14 -24
-21 -52 -16 l-23 5 23 -13 c27 -14 55 -2 60 26 3 11 -7 21 -27 29 -36 13 -38
42 -4 41 12 0 20 3 17 8 -8 12 -38 10 -52 -4z"/>
<path d="M9118 258 c-8 -24 8 -92 22 -96 12 -4 13 -2 3 9 -15 15 -17 66 -4 71
5 2 3 8 -4 15 -10 9 -15 9 -17 1z"/>
<path d="M6550 205 c0 -25 5 -45 10 -45 6 0 10 20 10 45 0 25 -4 45 -10 45 -5
0 -10 -20 -10 -45z"/>
<path d="M6601 201 l2 -46 6 40 c4 26 11 40 21 40 10 0 17 -14 21 -40 l7 -40
-2 45 c-1 42 -3 45 -28 46 -27 1 -28 -1 -27 -45z"/>
<path d="M6750 236 c-15 -19 -9 -56 12 -69 34 -22 66 41 36 71 -16 16 -33 15
-48 -2z m40 -11 c12 -14 5 -55 -9 -55 -17 0 -32 30 -26 50 8 24 18 25 35 5z"/>
<path d="M6921 188 c1 -35 3 -55 6 -45 2 9 12 17 22 17 23 0 41 20 41 45 0 27
-18 45 -47 45 -22 0 -23 -4 -22 -62z m54 33 c7 -23 -3 -51 -20 -51 -17 0 -27
28 -20 51 8 24 32 24 40 0z"/>
<path d="M7022 238 c-25 -25 -8 -78 25 -78 22 0 36 40 24 66 -12 26 -30 31
-49 12z m33 -33 c0 -16 -5 -30 -12 -32 -14 -5 -28 40 -18 57 12 19 30 4 30
-25z"/>
<path d="M7194 237 c-11 -29 0 -72 20 -75 10 -2 22 0 27 5 6 6 1 9 -12 9 -12
-1 -24 5 -26 12 -3 7 5 12 22 12 22 0 26 4 23 23 -4 26 -45 37 -54 14z m44
-15 c2 -7 -6 -12 -17 -12 -21 0 -27 11 -14 24 9 9 26 2 31 -12z"/>
<path d="M7281 202 l1 -47 8 38 c4 20 10 40 13 43 13 13 27 -9 27 -42 0 -46
18 -44 22 3 4 52 28 56 28 4 0 -23 5 -41 10 -41 14 0 12 66 -2 77 -7 5 -34 10
-60 11 l-48 2 1 -48z"/>
<path d="M7431 228 c-16 -45 13 -84 44 -58 20 17 19 66 -1 74 -26 10 -34 7
-43 -16z m44 -24 c0 -19 -5 -29 -15 -29 -16 0 -25 28 -16 51 10 25 31 10 31
-22z"/>
<path d="M7521 203 l2 -48 6 40 c4 26 11 40 21 40 10 0 17 -14 21 -40 l7 -40
-2 45 c-1 41 -3 45 -28 48 -27 3 -28 2 -27 -45z"/>
<path d="M7791 188 c1 -35 3 -55 6 -45 2 9 12 17 22 17 23 0 41 20 41 45 0 27
-18 45 -47 45 -22 0 -23 -4 -22 -62z m49 37 c12 -14 5 -55 -9 -55 -17 0 -32
30 -26 50 8 24 18 25 35 5z"/>
<path d="M7892 238 c-25 -25 -8 -78 25 -78 22 0 36 40 24 66 -12 26 -30 31
-49 12z m36 -27 c5 -29 -13 -50 -29 -34 -15 15 -3 66 14 60 7 -2 14 -14 15
-26z"/>
<path d="M8064 237 c-3 -9 -4 -28 -2 -44 3 -30 32 -43 51 -24 9 9 5 11 -12 9
-13 -2 -26 3 -28 10 -3 7 5 12 22 12 22 0 26 4 23 23 -4 26 -45 37 -54 14z
m44 -15 c2 -7 -6 -12 -17 -12 -21 0 -27 11 -14 24 9 9 26 2 31 -12z"/>
<path d="M8151 202 l1 -47 8 38 c4 20 10 40 13 43 13 13 27 -9 27 -42 0 -21 4
-33 10 -29 6 3 10 19 10 35 0 31 18 50 30 31 4 -7 5 -23 3 -35 -3 -13 0 -27 6
-30 16 -10 14 59 -1 71 -7 5 -34 10 -60 11 l-48 2 1 -48z"/>
<path d="M8301 228 c-9 -24 -4 -55 10 -64 5 -3 18 -2 29 1 25 8 29 70 4 79
-26 10 -34 7 -43 -16z m44 -24 c0 -19 -5 -29 -15 -29 -16 0 -25 28 -16 51 10
25 31 10 31 -22z"/>
<path d="M8391 203 l2 -48 6 40 c4 26 11 40 21 40 10 0 17 -14 21 -40 l7 -40
-2 45 c-1 41 -3 45 -28 48 -27 3 -28 2 -27 -45z"/>
<path d="M8490 236 c-25 -31 13 -97 40 -70 8 8 4 10 -11 10 -12 -1 -24 5 -26
12 -3 8 6 12 26 12 32 0 41 16 19 38 -16 16 -33 15 -48 -2z m40 -11 c0 -8 -9
-15 -20 -15 -20 0 -26 11 -13 23 12 13 33 7 33 -8z"/>
<path d="M8577 243 c-14 -14 -6 -34 18 -43 33 -13 33 -34 -1 -27 -16 3 -22 1
-16 -5 15 -15 46 -5 50 15 2 11 -6 20 -23 27 -29 11 -24 35 6 27 11 -3 17 -1
13 4 -6 10 -38 12 -47 2z"/>
<path d="M9036 242 c-3 -5 4 -8 16 -8 29 1 34 -22 6 -26 -35 -5 -31 -42 5 -46
27 -3 28 -2 25 40 -2 35 -7 44 -25 46 -11 2 -24 -1 -27 -6z m42 -54 c-7 -19
-38 -22 -38 -4 0 10 9 16 21 16 12 0 19 -5 17 -12z"/>
<path d="M9198 243 c12 -2 22 -11 22 -18 0 -7 -10 -15 -22 -17 -35 -5 -31 -42
5 -46 27 -3 28 -2 25 40 -3 38 -6 43 -28 45 -22 1 -22 1 -2 -4z m22 -58 c0 -8
-6 -15 -14 -15 -17 0 -28 14 -19 24 12 12 33 6 33 -9z"/>
<path d="M9272 238 c-27 -27 -7 -78 29 -78 10 0 20 -8 22 -17 3 -10 5 10 6 45
1 58 0 62 -22 62 -13 0 -28 -5 -35 -12z m43 -18 c6 -20 -9 -50 -25 -50 -12 0
-21 31 -15 51 8 25 32 24 40 -1z"/>
<path d="M9364 210 c1 -42 3 -45 29 -46 26 -1 27 1 26 45 l-2 46 -6 -40 c-4
-26 -11 -40 -21 -40 -10 0 -17 14 -21 40 l-7 40 2 -45z"/>
<path d="M9460 236 c-25 -31 13 -97 40 -70 8 8 4 10 -11 10 -12 -1 -24 5 -26
12 -3 8 6 12 26 12 34 0 36 2 21 31 -13 23 -33 25 -50 5z m40 -11 c0 -8 -9
-15 -20 -15 -20 0 -26 11 -13 23 12 13 33 7 33 -8z"/>
<path d="M9546 234 c-9 -23 -8 -24 19 -34 33 -13 33 -34 -1 -27 -16 3 -22 1
-16 -5 15 -15 46 -5 50 15 2 11 -6 20 -23 27 -29 11 -24 35 6 27 11 -3 17 -1
13 4 -9 15 -41 10 -48 -7z"/>
<path d="M8910 209 l-65 -6 68 -1 c52 -2 66 -5 61 -14 -5 -9 -2 -9 9 1 9 7 17
15 17 16 0 8 -32 10 -90 4z"/>
<path d="M7673 203 c39 -2 65 -8 62 -13 -10 -15 1 -12 15 5 11 13 3 15 -66 13
l-79 -2 68 -3z"/>
<path d="M6838 143 c12 -2 32 -2 45 0 12 2 2 4 -23 4 -25 0 -35 -2 -22 -4z"/>
<path d="M10018 143 c12 -2 32 -2 45 0 12 2 2 4 -23 4 -25 0 -35 -2 -22 -4z"/>
</g>
</svg>
